<?xml version="1.0" encoding="utf-8"?>
<!-- Generator: Adobe Illustrator 26.4.1, SVG Export Plug-In . SVG Version: 6.00 Build 0)  -->
<svg version="1.1" id="Layer_2_00000121979846739356473610000000585929561957156489_"
	 xmlns="http://www.w3.org/2000/svg" xmlns:xlink="http://www.w3.org/1999/xlink" x="0px" y="0px" viewBox="0 0 733.4 485"
	   xml:space="preserve">
<style type="text/css">
	.st0{fill:#02E2AC;}
	.st1{fill:#5932C4;}
	.st2{fill:#6F3FF5;}
	.st3{fill:#F35890;}
</style>
<g id="_01" >
	<path id="Hooves-12" class="st0" d="M512.7,398.2c-0.2-3.9-4.5-6.5-7.6-4.4c-0.3,0.1-0.5,0.3-0.8,0.6c-1.6,1.4-1.8,2.7-2.9,3.9
		c-1.5,2-1.2,0.9-10,0.5c0.3,8.1,0.6,25.2,0.9,33.3c8.2-5.9,12.8-17.9,20.9-23.7C513,405,512.8,401.5,512.7,398.2L512.7,398.2z
		 M351.9,409.8c-0.3-1.4-0.8-3.1-2.4-4.2c-1.5-1-3.1-0.6-4.6-0.8c-2.1-0.3,0-5.1-2.7-11.9c-5.7,3.5-21.6,13.4-27.3,16.8
		c6.8,4.2,22.5,8.1,28.8,13.2C347.4,419.8,348.1,412.9,351.9,409.8L351.9,409.8z M261.1,376.8c-1.8-0.6-3.6,0.5-4,2.2
		c-0.3,1-0.3,2.2,0.1,3.3c0.6,1.6,1.8,2.4,2.5,3.6c1.2,1.8-2.4,3.6-5.7,10l30,11.4L271.8,378C268,376.6,264.7,378.1,261.1,376.8
		L261.1,376.8z M288.1,436.9c-1,2.1-2.1,5-1,7.5c0.8,2,2.2,2.5,3.5,4c1.5,2-0.3,1.2-3,8.4c8.9,3.1,35.7,8.7,35.7,8.7l-21.5-28.6
		C301.6,436.8,293.5,438.6,288.1,436.9L288.1,436.9z"/>
	<path id="BodyB-12" class="st1" d="M301.1,435.5c0.5,1.1,0.8,2.3,0.8,3.5c0,4.8-3.9,8.7-8.7,8.7c-3.5,0-6.6-2.1-7.9-5.1
		c-24-26.2-50.6-37.9-74.6-63.6c-0.6-0.6-1.2-1.2-1.8-1.9c-0.1-0.1-0.2-0.2-0.3-0.3c0,0,0,0,0.1,0c-1.6-2.3-2.6-5.1-2.6-8.1
		c0-0.3,0-0.6,0.1-1c-4.2-21-5.9-24.1-10.4-46.9c-3.9-9.8-10.1-22.6-20.6-36.1c-5.4-7-10.9-12.9-16.2-18
		c-14.2-8.1-23.9-23.2-23.9-40.8c0-25.9,21-46.9,46.9-46.9s46.9,21,46.9,46.9v1.4c6,22.5,2.7,96.9,2.1,101.8
		c-2,17.8-0.8,27.2,0.5,31.9c1.3,1.9,2.1,4.1,2.3,6.5c15.9,28,44.7,44.1,64.7,64.8c0.7,0.6,1.3,1.2,1.9,2
		C300.8,434.6,301,435,301.1,435.5L301.1,435.5z M521.2,397.8c-0.6-26.7-1.3-70.6-1.8-99.3c0-0.2,0-0.3,0-0.5c0-0.2,0-0.4,0-0.6
		c0-7.4-6-13.4-13.4-13.8c-14.5-3.2-35.7,4-47.2,0.9c2.1-8.7,7.6-36.8-6.3-66.8c-0.1-0.1-0.1-0.4-0.3-0.6
		c-15.3-32.6-62.5-31.4-76.1,1.9c-1.4,3.3-2.4,6.8-3.1,10.4c-7.6,34.7,15.9,61.2,20.2,64.2c3.8,2.7,8.4,8.1,22.5,15.5
		c14.9,7.8,46,1.8,77.8-2c3.4,24.3,6.8,59.9,10.3,84.3c-1.5,1.8-2.5,4.2-2.5,6.8c0,5.7,4.4,10.4,9.9,10.4s9.9-4.6,9.9-10.4
		C521.2,398,521.2,397.9,521.2,397.8C521.2,397.7,521.2,397.7,521.2,397.8L521.2,397.8z"/>
	<path id="BodyF-12" class="st2" d="M561.5,113.2C551.2,102,544,91.8,539.8,85.8c-2-2.7-5.1-6.4-9.8-9.9c-5.2-3.8-10.2-5.8-13.5-6.7
		L496.3,48l2.7,15l-17-15.7l6.6,21c-37,8.9-67,58.8-112.8,78.7c-133.5,72-101.9-25.5-202.2,5.2c-25.9,7.9-46.5,42.9-46.8,60.4
		c-2.4,21.4,1,35.5,9,45.1c3.9,6.1,9.6,11.6,17.7,16.2c22.2,25.7,15.7,30.6,6.7,42.4c-4,2.6-6.8,6.9-7.4,11.9
		c-0.2,0.6-0.3,1.3-0.1,1.9c0,0.1,0,0.1,0,0.2c0,6.1,3.3,11.4,8.1,14.4c0.5,0.5,1.1,1,1.8,1.2c31.9,12.7,63.7,25.4,95.6,38
		c0.8,1.2,2,2.2,3.5,2.7c3.9,1.4,8.3-0.8,9.8-4.9s-0.4-8.6-4.3-10c-0.6-0.2-1.2-0.3-1.8-0.4c-26.4-14.7-52.7-29.3-79.1-44
		c8.3-7.5,17.9-18.2,25.6-32.9c2.4-4.5,4.3-8.9,6-13c76.2,10.4,104.6,40.4,152.7,39.3l36.7,53.8c-17.7,10-38.8,21.3-57.1,31.7
		c-0.5,0-1-0.1-1.4,0c-5,0.3-8.7,4.7-8.4,9.8c0.3,4.7,3.9,8.4,8.3,8.7c0.9,0.3,1.9,0.4,2.8-0.1c0.2-0.1,0.5-0.2,0.8-0.4
		c0.7-0.2,1.3-0.5,1.9-0.9c17.4-8.4,55.6-26.9,77-37.3c-0.1-0.1-0.3-0.1-0.4-0.2c4.6-2.8,7.6-7.8,7.3-13.3c-0.1-2.4-0.9-4.6-2-6.6
		c-5-19.3-9.9-38.7-14.8-58.1c25.9-16.2,36.7-48.1,32.4-79.8c1-34.5,18.1-58.1,33.8-79.8c0.6,0.3,1.2,0.6,1.8,0.9
		c8.2,3.4,15.3,3.4,15.3,3.4c2.4,0,6.3-0.3,10.2-0.9c3.8-0.6,4.7-0.9,7-0.9c4.3-0.1,7.7,0.9,10,1.8c5.5,1.8,16.8,5.9,31.5,11.4
		c0,0,4.2,1.8,12.2,5.1c1.2,0.6,7.7,3.6,13.5,0.8c6.5-3.3,7.3-11.7,7.5-12.8C597.6,143.6,581.7,135.2,561.5,113.2L561.5,113.2z
		 M526.1,102l-5.7-5.1l5.1-5.7l5.7,5.1L526.1,102z M587,150l-2.4-2.1l2.1-2.4l2.4,2.1L587,150z"/>
	<g id="Tail-12">
		<polygon id="ej82dvxeu3j473-12" class="st2" points="145.7,175.2 110.2,153 149.1,137.5 184.6,159.8 		"/>
		<polygon id="ej82dvxeu3j474-12" class="st0" points="103.4,165.9 77.2,149.6 105.9,138.1 132,154.5 		"/>
		<polygon id="ej82dvxeu3j475-12" class="st3" points="62.1,159.4 41.3,146.4 64.1,137.4 84.8,150.4 		"/>
	</g>
	<g id="Mane-12">
		<polygon id="ej82dvxeu3j477-12" class="st2" points="367.1,102.2 372.1,98.6 375.8,103.5 370.9,107.1 		"/>
		<polygon id="ej82dvxeu3j478-12" class="st0" points="375.5,103.5 382.9,97.9 388.4,105.3 381.1,110.8 		"/>
		<polygon id="ej82dvxeu3j479-12" class="st3" points="388.1,105.6 399.2,97.5 407.5,108.4 396.5,116.7 		"/>
		<polygon id="ej82dvxeu3j480-12" class="st2" points="406.4,108.2 419.6,98.4 429.7,111.6 416.5,121.5 		"/>
		<polygon id="ej82dvxeu3j481-12" class="st2" points="390.4,84.2 395.3,80.6 398.9,85.5 394.1,89.1 		"/>
		<polygon id="ej82dvxeu3j482-12" class="st0" points="398.6,85.5 406,79.9 411.5,87.3 404.2,92.8 		"/>
		<polygon id="ej82dvxeu3j483-12" class="st3" points="411.2,87.8 422.2,79.5 430.6,90.4 419.6,98.7 		"/>
		<polygon id="ej82dvxeu3j484-12" class="st2" points="429.5,90.3 442.7,80.4 452.8,93.8 439.6,103.7 		"/>
		<polygon id="ej82dvxeu3j485-12" class="st2" points="413.5,66.6 418.3,63 422,67.9 417.1,71.6 		"/>
		<polygon id="ej82dvxeu3j486-12" class="st0" points="421.9,67.8 429.2,62.4 434.8,69.8 427.4,75.3 		"/>
		<polygon id="ej82dvxeu3j487-12" class="st3" points="434.5,70.1 445.4,62 453.7,72.9 442.7,81.2 		"/>
		<polygon id="ej82dvxeu3j488-12" class="st2" points="452.6,72.6 466,62.8 476,76.1 462.7,85.9 		"/>
	</g>
	<g id="Horn-12">
		<path id="ej82dvxeu3j460" class="st0" d="M539.2,76.5l-5.7,4.8l0,0c-2,1.9-0.5,4.9,2.4,7.8c2.8,2.8,6,4.7,8,2.7l0,0l5-5.6
			c-2.4-0.2-4.8-1.2-6.6-3.2C540.3,81.1,539.4,78.9,539.2,76.5L539.2,76.5z"/>
		<path id="ej82dvxeu3j461" class="st3" d="M547,69.9l-7.8,6.4c0.2,2.4,1,4.8,3,6.8c1.8,1.9,4.2,3,6.6,3.2l6.8-7.7
			c-2.1-0.3-4-1.3-5.7-3S547.3,72,547,69.9z"/>
		<path id="ej82dvxeu3j462" class="st0" d="M583,47.4l7-8c-0.6-0.5-1-0.8-1.5-1.3c-0.5-0.5-0.9-1-1.3-1.7l-8.1,6.8
			c0.5,0.9,1,1.7,1.7,2.2C581.4,46.3,582.1,46.8,583,47.4L583,47.4z"/>
		<path id="ej82dvxeu3j463" class="st3" d="M589.9,39.4l17.5-20l-20.4,17c0.3,0.6,0.8,1,1.3,1.7C588.8,38.5,589.4,39,589.9,39.4
			L589.9,39.4z"/>
		<path id="ej82dvxeu3j464" class="st2" d="M580.8,45.6c-0.8-0.8-1.2-1.5-1.7-2.2l-8.1,6.8c0.5,1,1.2,2.1,2.1,3.2
			c0.9,0.9,2,1.7,3,2.1l6.9-8C582.1,46.8,581.3,46.3,580.8,45.6z"/>
		<path id="ej82dvxeu3j465" class="st3" d="M570.8,49.9l-8,6.8c0.5,1.3,1.3,2.7,2.4,3.9c1,1.2,2.4,2,3.9,2.5l6.9-7.8
			c-1-0.5-2.1-1.2-3-2.1C572.1,52.2,571.5,51.1,570.8,49.9L570.8,49.9z"/>
		<path id="ej82dvxeu3j466" class="st2" d="M555,63.3l-8,6.6c0.3,2.1,1.2,4.1,2.8,5.7s3.6,2.6,5.7,3l6.8-7.7
			c-1.7-0.4-3.3-1.3-4.7-2.8C556.1,66.7,555.4,65.1,555,63.3L555,63.3z"/>
		<path id="ej82dvxeu3j467" class="st0" d="M562.9,56.7l-8,6.6c0.5,1.8,1.3,3.5,2.7,4.8c1.3,1.3,3,2.2,4.7,2.8l6.9-7.8
			c-1.3-0.5-2.7-1.3-3.9-2.5S563.4,58,562.9,56.7z"/>
	</g>
</g>
</svg>
