<?xml version="1.0" encoding="utf-8"?>
<!-- Generator: Adobe Illustrator 26.4.1, SVG Export Plug-In . SVG Version: 6.00 Build 0)  -->
<svg version="1.1" id="Layer_2_00000137838352174435978570000008683453873612826517_"
	 xmlns="http://www.w3.org/2000/svg" xmlns:xlink="http://www.w3.org/1999/xlink" x="0px" y="0px" viewBox="0 0 733.4 485"
	 style="enable-background:new 0 0 733.4 485;" xml:space="preserve">
<style type="text/css">
	.st0{fill:#02E2AC;}
	.st1{fill:#5932C4;}
	.st2{fill:#6F3FF5;}
	.st3{fill:#F35890;}
</style>
<g id="_02">
	<path id="Hooves-11" class="st0" d="M300.9,388.2c-1.8-0.8-3.6,0.3-4,2.1c-0.3,1-0.3,2.2,0,3.3c0.5,1.8,1.6,2.4,2.4,3.6
		c1.2,1.8-2.5,3.5-6,9.9l29.5,12.3l-11.2-29.9C307.8,388.3,304.5,389.7,300.9,388.2L300.9,388.2z M545.1,364.2
		c-1-3.8-5.7-5.2-8.5-2.5c-0.2,0.1-0.5,0.5-0.6,0.8c-1.2,1.6-1.2,3-1.8,4.5c-1,2.2-1,1-9.8,2.7c2.1,7.8,6.2,24.5,8.2,32.2
		c6.6-7.6,8.4-20.2,15-27.9C546.9,370.7,546,367.5,545.1,364.2L545.1,364.2z M422.4,384.3c-0.8-1-2.1-2.5-3.9-2.9s-3.1,0.9-4.5,1.4
		c-2,0.6-2.1-4.6-7.5-9.6c-3.8,5.5-14,21.1-17.7,26.7c8,0.9,23.9-2.1,31.6-0.3C422.5,395.3,420.3,388.7,422.4,384.3L422.4,384.3z
		 M202.9,465.3c-0.6,2.2-0.9,5.2,0.8,7.5c1.2,1.8,2.9,2,4.2,3c1.9,1.5,0,1.2-0.9,8.9c9.3,0.9,36.8-0.1,36.8-0.1L216,461.9
		C216.1,462,208.8,465.8,202.9,465.3L202.9,465.3z"/>
	<path id="BodyB-11" class="st1" d="M223.3,235.5c-0.1,0.4-0.3,0.8-0.4,1.2c-3,23.1-33.9,90.8-36.3,95.3
		c-8.5,15.9-10.9,25-11.6,29.8c0.2,0.9,0.3,1.9,0.3,2.9c0,1.5-0.2,2.9-0.6,4.2c5,32.6,31.9,67.2,42.4,94.2c0.5,1.1,0.5,2.1,0.3,3.1
		c0,0,0,0,0,0.1c0,4.8-3.9,8.7-8.7,8.7s-8.7-3.9-8.7-8.7c0-0.3,0-0.5,0-0.8c-12.2-32.4-37-60.9-50.3-93.1c-1-1.6-1.7-3.4-2.1-5.3
		c0,0,0-0.1-0.1-0.1c0,0,0,0,0,0c-0.1-0.7-0.2-1.5-0.2-2.2c0-2.2,0.5-4.2,1.4-6.1c4.1-21.1,3.6-24.7,8-47.5
		c0-10.4-0.9-24.6-5.6-41.1c-2.2-8.5-5.2-16.1-8.2-22.8c-10.2-12.9-13.4-30.6-6.8-46.8c9.8-24,37.1-35.7,61.1-25.9
		S233.1,211.5,223.3,235.5L223.3,235.5z M553.5,362.4c0-0.2-0.1-0.3-0.1-0.5l0,0c-6.6-25.8-17.1-68.6-24-96.1c0-0.1-0.1-0.2-0.2-0.4
		c0-0.3-0.1-0.6-0.1-0.8c-1.8-7.3-9-11.9-16.5-10.4c-14.8,0.3-33.7,11.9-45.4,11.5c0-8.9-0.8-37.5-21.1-63.6
		c-0.1-0.3-0.3-0.4-0.5-0.6c-22.2-28.2-68-16.5-73.6,19.1c-0.5,3.6-0.8,7.2-0.8,10.8c0.3,35.5,29.4,56.1,34.2,58
		c4.2,1.6,10,5.9,25.4,9.9c16.1,4.2,45.2-8.6,75.3-19.5c8.9,22.9,20.2,57,29.1,79.9c-1.1,2.1-1.4,4.6-0.8,7.2
		c1.3,5.6,6.7,9.1,12,7.9C551.5,373.5,554.8,368,553.5,362.4L553.5,362.4z"/>
	<path id="BodyF-11" class="st2" d="M567.3,96.2c-11-10.8-18.6-20.4-23.1-26.4c-2.1-2.6-5.4-6.2-10.2-9.3c-5-3.3-9.8-5-13.2-5.8
		l-17.4-20.9l0.8,15.5l-15.4-15.8l3.4,19.9c-40.4,6.4-76.9,62-124.6,82.7C238.5,196.8,267.7,114,169,150.2
		c-25.5,9.3-44.2,45.3-43.7,62.8c-0.4,7.3-0.3,13.8,0.5,19.4c0.3,2,0.5,4.1,0.7,6.1c0.3,3.7,1.2,7.4,2.7,11.1
		c6.9,17.1,23.2,36.3,40.5,35.8c5.7-0.2,11.2,1.6,15.9,4.7c19.5,13.1,15.1,24,11.5,38.8c-1.9,2.6-3,5.7-3.1,9.2
		c-0.2,6.6,3.4,12.5,8.8,15.4c0.2,0.1,0.4,0.2,0.6,0.4c0.1,0,0.2,0.1,0.2,0.1c0,0,0,0,0.1,0c31.3,13.8,62.6,27.5,93.9,41.3
		c0.8,1.3,2,2.4,3.5,3c3.8,1.5,8.3-0.5,9.9-4.6c1.6-4.1-0.1-8.6-4-10.2c-0.6-0.2-1.1-0.4-1.7-0.5c-26-15.6-51.9-31.3-77.8-47.1
		c-0.3-2.2-1.1-4.3-2.2-6.1c4.9-10.1,9.8-23.7,11.6-40.4c0.4-3.6,0.6-7.1,0.6-10.5c74.6,10.3,101.4,41.2,160.8,25
		c0.5-0.1,1-0.2,1.5-0.4l57.1,26.3c-11.6,16.4-25.7,35.3-37.7,52.1c-0.4,0.1-0.8,0.3-1.1,0.5c-4.4,2.4-5.9,7.9-3.5,12.5
		c2.4,4.5,8,6.3,12.3,3.9c1.8-1,3.1-2.5,3.9-4.2c12.1-14.9,36.9-45.4,51.9-63.6c0.4-0.4,0.7-0.8,1-1.2c0.1-0.2,0.3-0.4,0.4-0.5
		c0,0,0,0,0,0c3-4.4,3.5-10.2,0.8-15.1c-1.5-2.7-3.8-4.8-6.5-6.1c-11.8-11.7-23.7-23.4-35.5-35.1c10.2-16.7,13.5-37.8,10.2-58.7
		c1-36.1,19.5-60.3,35.7-82.7c2.8,2.1,5.5,3.6,8,4.6c8.4,3,15.4,2.6,15.4,2.6c2.4-0.1,6.3-0.8,10.2-1.5c3.8-0.8,4.7-1.2,6.9-1.4
		c4.3-0.3,7.7,0.6,10,1.2c5.7,1.5,17.1,4.9,32.1,9.8c0,0,4.3,1.5,12.3,4.4c1.2,0.4,8,3.3,13.5,0c6.3-3.6,6.8-12,6.8-13.1
		C604.8,124.5,588.6,117.2,567.3,96.2L567.3,96.2z M531.4,86.7l-6-4.8l4.8-6l6,4.8L531.4,86.7z M594.6,131.4l-2.5-1.9l2-2.6l2.5,1.9
		L594.6,131.4z"/>
	<g id="Tail-11">
		<polygon id="ej82dvxeu3j473-11" class="st2" points="145.7,175.2 110.2,153 149.1,137.5 184.6,159.8 		"/>
		<polygon id="ej82dvxeu3j474-11" class="st0" points="103.4,165.9 77.2,149.6 105.9,138.1 132,154.5 		"/>
		<polygon id="ej82dvxeu3j475-11" class="st3" points="62.1,159.4 41.3,146.4 64.1,137.4 84.8,150.4 		"/>
	</g>
	<g id="Mane-11">
		<polygon id="ej82dvxeu3j477-11" class="st2" points="359.1,90.1 364.1,86.5 367.8,91.5 362.9,95.1 		"/>
		<polygon id="ej82dvxeu3j478-11" class="st0" points="367.5,91.5 374.9,85.9 380.4,93.3 373.1,98.8 		"/>
		<polygon id="ej82dvxeu3j479-11" class="st3" points="380.1,93.6 391.2,85.5 399.5,96.4 388.5,104.7 		"/>
		<polygon id="ej82dvxeu3j480-11" class="st2" points="398.4,96.1 411.6,86.4 421.7,99.6 408.5,109.5 		"/>
		<polygon id="ej82dvxeu3j481-11" class="st2" points="382.4,72.1 387.3,68.5 390.9,73.5 386.1,77.1 		"/>
		<polygon id="ej82dvxeu3j482-11" class="st0" points="390.6,73.5 398,67.9 403.5,75.3 396.2,80.8 		"/>
		<polygon id="ej82dvxeu3j483-11" class="st3" points="403.2,75.7 414.2,67.5 422.6,78.4 411.6,86.7 		"/>
		<polygon id="ej82dvxeu3j484-11" class="st2" points="421.5,78.3 434.7,68.4 444.8,81.7 431.6,91.6 		"/>
		<polygon id="ej82dvxeu3j485-11" class="st2" points="405.5,54.6 410.3,51 414,55.9 409.1,59.5 		"/>
		<polygon id="ej82dvxeu3j486-11" class="st0" points="413.9,55.8 421.2,50.4 426.8,57.7 419.4,63.3 		"/>
		<polygon id="ej82dvxeu3j487-11" class="st3" points="426.5,58 437.4,49.9 445.7,60.9 434.7,69.1 		"/>
		<polygon id="ej82dvxeu3j488-11" class="st2" points="444.6,60.6 458,50.8 468,64 454.7,73.9 		"/>
	</g>
	<g id="Horn-11">
		<path id="ej82dvxeu3j423" class="st0" d="M543,60.5l-5.4,5.1l0,0c-1.8,2.1-0.2,4.9,2.8,7.7c3,2.8,6.2,4.3,8.1,2.4l0,0l4.7-5.8
			c-2.4,0-4.8-1.1-6.8-2.7C544.3,65.3,543.3,62.9,543,60.5L543,60.5z"/>
		<path id="ej82dvxeu3j424" class="st3" d="M550.5,53.5l-7.5,6.9c0.3,2.4,1.3,4.8,3.3,6.5c2,1.8,4.3,2.7,6.8,2.7l6.3-8
			c-2.1-0.3-4-1.2-5.7-2.7C552,57.6,550.9,55.6,550.5,53.5L550.5,53.5z"/>
		<path id="ej82dvxeu3j425" class="st0" d="M585.3,29.1l6.6-8.2c-0.6-0.3-1-0.8-1.7-1.2s-0.9-1-1.3-1.5l-7.8,7.2
			c0.5,0.8,1,1.5,1.8,2.2S584.4,28.8,585.3,29.1z"/>
		<path id="ej82dvxeu3j426" class="st3" d="M591.7,20.9L608.2,0l-19.5,18c0.5,0.6,0.9,1,1.3,1.5S591.3,20.5,591.7,20.9z"/>
		<path id="ej82dvxeu3j428" class="st3" d="M573.3,32.4l-7.7,7c0.6,1.3,1.5,2.7,2.5,3.8c1.2,1,2.5,1.8,3.9,2.2l6.5-8.2
			c-1.2-0.5-2.2-1-3.2-2C574.6,34.5,573.9,33.5,573.3,32.4z"/>
		<path id="ej82dvxeu3j430" class="st0" d="M565.6,39.6l-7.7,7c0.5,1.7,1.5,3.3,2.8,4.7s3.2,2.1,4.8,2.5l6.5-8.1
			c-1.5-0.5-2.8-1.2-3.9-2.2C567.1,42.2,566.2,41,565.6,39.6L565.6,39.6z"/>
		<path class="st2" d="M578.8,37.3l6.5-8.2c-0.9-0.3-1.7-0.9-2.4-1.6c-0.8-0.6-1.3-1.5-1.8-2.2l-7.7,7.2c0.6,1,1.3,2.1,2.2,3
			S577.6,36.9,578.8,37.3z"/>
		<path class="st2" d="M559.3,62l6.3-8.1c-1.8-0.5-3.5-1.2-4.8-2.5s-2.2-3-2.8-4.7l-7.5,7c0.5,2.1,1.5,4,3.2,5.5
			S557.4,61.6,559.3,62L559.3,62z"/>
	</g>
</g>
</svg>
