<?xml version="1.0" encoding="utf-8"?>
<!-- Generator: Adobe Illustrator 26.4.1, SVG Export Plug-In . SVG Version: 6.00 Build 0)  -->
<svg version="1.1" id="Layer_2_00000044893259022549913900000010002350279320961960_"
	 xmlns="http://www.w3.org/2000/svg" xmlns:xlink="http://www.w3.org/1999/xlink" x="0px" y="0px" viewBox="0 0 733.4 485"
	 style="enable-background:new 0 0 733.4 485;" xml:space="preserve">
<style type="text/css">
	.st0{fill:#02E2AC;}
	.st1{fill:#5932C4;}
	.st2{fill:#6F3FF5;}
	.st3{fill:#F35890;}
</style>
<g id="_03">
	<path id="Hooves-10" class="st0" d="M592.5,359.5c-2.1-3.3-7-3.3-8.8,0.1l-0.5,0.9c-0.8,2-0.3,3.3-0.5,4.8
		c-0.3,2.4-0.8,1.4-8.5,5.4c4.3,6.9,13,21.5,17.4,28.4c4-9.1,2.1-21.8,6.3-31C596.1,365.1,594.3,362.2,592.5,359.5z M492.6,378.9
		c-1.4,0-3.3,0.1-4.6,1.5s-1.2,3-1.6,4.4c-0.8,2-5-1-12.1,0.5c2.2,6.3,9,23.9,11.2,30c5.4-5.9,12.3-20.5,18.5-25.8
		C501.6,385.2,494.8,383.2,492.6,378.9L492.6,378.9z M296.4,458.7c-1.8,0-3.3,1.6-3,3.5c0.1,1,0.5,2.1,1.2,3.1
		c1.2,1.4,2.4,1.6,3.6,2.5c1.8,1.4-1,4.2-2,11.4l32.1,0.5l-21.6-23.4C302.8,456.1,300.4,458.7,296.4,458.7z M111.6,459.3
		c-0.4,2.2-0.6,5.4,1.1,7.5c1.3,1.6,2.8,1.8,4.3,2.9c1.9,1.5,0.2,1.2-0.6,8.9c9.3,0.6,36.8-1.5,36.8-1.5l-28.5-21.8
		C124.6,455.5,117.4,459.6,111.6,459.3z"/>
	<path id="BodyB-10" class="st1" d="M221.5,247l-0.9,0.9c-10.9,20.6-64.1,72.6-67.9,75.9c-14,12-19.5,19.8-21.7,23.9
		c-0.3,1.3-0.8,2.5-1.4,3.7c0,0.1,0,0.2,0,0.2s0,0-0.1,0c-0.6,1-1.2,1.8-1.9,2.6c-8.9,32.1,0,78.6-1.4,107.7c-0.1,1.5-0.9,2.8-2,3.6
		c-1.6,2-4.1,3.3-6.8,3.3c-4.8,0-8.7-3.9-8.7-8.7c0-1.5,0.4-2.9,1-4.1c1.9-36.4-8.5-78.4-6-114.6c0.1,0.1,0.1,0.1,0.2,0.2
		c0.7-3.1,2.5-5.9,4.9-7.8c10.6-17.2,11.8-21.1,23.7-40.2c3.8-9.8,7.9-23.2,9.6-40.4c0.9-8.7,0.9-16.8,0.4-24.1
		c-4.8-15.6-1.5-33.3,10.5-46.1c17.7-18.9,47.4-19.9,66.3-2.2S239.2,228.1,221.5,247L221.5,247z M599.8,355.2
		c-0.1-0.1-0.1-0.2-0.2-0.3c0,0,0,0,0,0c-13.7-22.6-36-60-50.8-84.5c-0.2-0.5-0.5-1.1-0.8-1.6c-2.1-3.5-5.5-5.7-9.3-6.5
		c-14.8-4.5-38.1,7-50.8,5.1c1.2-8.9,3.8-37.2-13.2-65.7c0-0.1-0.1-0.4-0.3-0.6c-18.6-30.8-65.6-24.6-75.4,9.9
		c-1,3.4-1.6,7.1-2.1,10.6c-4,35.4,22.2,59.2,26.9,61.8c4,2.1,9.3,7,24,12.9c15.6,6.3,46.4-3.1,77.9-10.3c1.1,1,2.2,1.9,3.5,2.5
		c15.2,19.3,36.7,49.4,52.3,69.3c-0.5,2.4-0.1,5,1.2,7.3c2.9,5,9,6.8,13.8,4C601.1,366.4,602.7,360.1,599.8,355.2z"/>
	<path id="BodyF-10" class="st2" d="M587.8,100.8c-10.8-11-18.3-20.7-22.6-26.7c-2.1-2.7-5.2-6.3-10-9.6c-5.1-3.6-9.9-5.2-13.4-6.2
		l-18.3-20.9l1.6,15.5l-16-15.9l4,19.2c-39.8,5.9-79.5,57.5-127.3,74.2c-133.3,61.8-103.6-20.9-202.4,15.1
		c-25.5,9.3-44.3,45.2-43.7,62.8c-1.6,25.2,4.4,40,16.1,48.8c12.2,12.3,30.5,20.7,44.6,14.6c36.7,14.2,34.1,63.3,33.9,90.6
		c-1.4,5.1,0.1,10.7,4.2,14.4c18.2,27.9,36.2,57.9,54.5,85.8c1,3,3.8,5.2,7,5.2c4.1,0,7.5-3.5,7.5-7.9c0-2-0.7-3.8-1.8-5.1
		c-14.9-31-29.8-63.4-44.9-94.4c0,0-0.1,0-0.1,0c-0.1-0.2-0.2-0.4-0.3-0.6c4.1-14.5,7.2-43,7.3-63.8c0-6.9-0.6-13.3-1.5-19.1
		c57.5,10.8,85.1,32.7,130.2,26.2c3.6-0.5,7.1-0.8,10.7-1c7.5-0.5,15-2.6,21.9-6.7c1.4-0.1,2.7-0.5,4-0.6l71.9,16.4
		c-4,20.4-9.5,44.2-13.7,65.1c-1.5,1.4-2.5,3.2-2.8,5.3c-0.7,4.9,2.9,9.5,8,10.2c3.3,0.4,6.4-0.8,8.4-3.1c0.6-0.4,1-1,1.2-1.8
		c0,0,0,0,0-0.1c0.4-0.8,0.7-1.7,0.8-2.7c0-0.1,0-0.3,0-0.4c5-18.1,15.5-56.7,21.7-79.8c0.3-0.8,0.5-1.6,0.6-2.4c0,0,0,0,0,0l0,0
		c0.9-5.2-1-10.7-5.4-14.1c-1.7-1.3-3.5-2.1-5.4-2.6c-17.7-11.4-35.5-22.9-53.3-34.2c4.1-14.1,4.6-29.8,1.5-45.1
		c5.6-31.4,24.1-52.4,40.5-72c3.2,2.8,6.5,4.8,9.5,5.9c8.4,3.2,15.5,2.9,15.5,2.9c2.4-0.1,6.3-0.6,10.2-1.2c3.8-0.6,4.7-1,6.9-1.2
		c4.3-0.3,7.7,0.8,10,1.4c5.5,1.7,16.9,5.3,31.9,10.4c0,0,4.3,1.7,12.3,4.7c1.2,0.6,7.8,3.5,13.5,0.2c6.3-3.4,7.1-11.8,7.1-12.9
		C624.9,129.9,608.7,122.3,587.8,100.8L587.8,100.8z M552.2,90.9l-5.8-4.8l4.8-5.8l5.8,4.8L552.2,90.9z M614.5,136.7l-2.4-2.1
		l2.1-2.4l2.4,2.1L614.5,136.7z"/>
	<g id="Tail-10">
		<polygon id="ej82dvxeu3j473-10" class="st2" points="152.7,175.2 117.2,153 156.1,137.5 191.6,159.8 		"/>
		<polygon id="ej82dvxeu3j474-10" class="st0" points="110.4,165.9 84.2,149.6 112.9,138.1 139,154.5 		"/>
		<polygon id="ej82dvxeu3j475-10" class="st3" points="69.1,159.4 48.4,146.4 71.1,137.4 91.8,150.4 		"/>
	</g>
	<g id="Horn-10">
		<path id="ej82dvxeu3j382" class="st0" d="M564.1,64.6l-5.5,4.9l0,0c-2,1.9-0.3,4.9,2.7,7.8s6.2,4.5,8,2.6l0,0l4.7-5.7
			c-2.4-0.2-4.8-1.1-6.8-2.8C565.2,69.6,564.3,67,564.1,64.6L564.1,64.6z"/>
		<path id="ej82dvxeu3j383" class="st3" d="M571.6,57.9l-7.7,6.8c0.2,2.4,1.3,4.8,3.2,6.6c1.8,1.8,4.3,2.8,6.8,2.8l6.5-7.8
			c-2.1-0.3-4-1.2-5.7-2.8C573,61.9,572.1,60,571.6,57.9z"/>
		<path id="ej82dvxeu3j384" class="st0" d="M606.7,34l6.8-8.2c-0.6-0.3-1-0.8-1.7-1.2c-0.6-0.5-0.9-1-1.3-1.5l-8,7
			c0.5,0.8,1,1.6,1.8,2.2C605.2,33.1,606,33.6,606.7,34z"/>
		<path id="ej82dvxeu3j385" class="st3" d="M613.5,25.9l16.8-20.5l-19.8,17.7c0.5,0.6,0.9,1,1.3,1.5S612.9,25.5,613.5,25.9z"/>
		<path id="ej82dvxeu3j386" class="st2" d="M604.5,32.4c-0.8-0.8-1.3-1.5-1.8-2.2l-7.8,7c0.6,1,1.2,2.1,2.2,3c0.9,0.9,2,1.5,3.2,2.1
			l6.6-8.1C606,33.6,605.2,33.1,604.5,32.4z"/>
		<path id="ej82dvxeu3j387" class="st3" d="M594.9,37.2l-7.8,6.9c0.6,1.3,1.3,2.7,2.5,3.8s2.5,2,3.9,2.4l6.6-8.1
			c-1-0.5-2.2-1.2-3.2-2.1C596.1,39.3,595.3,38.2,594.9,37.2z"/>
		<path id="ej82dvxeu3j388" class="st2" d="M579.3,51l-7.7,6.9c0.5,2.1,1.3,4,3,5.5c1.7,1.5,3.6,2.5,5.7,2.9l6.5-8
			c-1.8-0.5-3.5-1.3-4.8-2.5C580.8,54.4,579.7,52.8,579.3,51z"/>
		<path id="ej82dvxeu3j389" class="st0" d="M587.1,44.1l-7.8,6.9c0.5,1.7,1.5,3.3,2.8,4.7s3,2.2,4.8,2.5l6.6-8
			c-1.3-0.5-2.7-1.2-3.9-2.4C588.4,46.8,587.5,45.4,587.1,44.1L587.1,44.1z"/>
	</g>
	<g id="Mane-10">
		<polygon id="ej82dvxeu3j477-10" class="st2" points="367.1,100.2 372.1,96.6 375.8,101.5 370.9,105.1 		"/>
		<polygon id="ej82dvxeu3j478-10" class="st0" points="375.5,101.5 382.9,95.9 388.4,103.3 381.1,108.8 		"/>
		<polygon id="ej82dvxeu3j479-10" class="st3" points="388.1,103.6 399.2,95.5 407.5,106.4 396.5,114.7 		"/>
		<polygon id="ej82dvxeu3j480-10" class="st2" points="406.4,106.2 419.6,96.4 429.7,109.6 416.5,119.5 		"/>
		<polygon id="ej82dvxeu3j481-10" class="st2" points="390.4,82.2 395.3,78.6 398.9,83.5 394.1,87.1 		"/>
		<polygon id="ej82dvxeu3j482-10" class="st0" points="398.6,83.5 406,77.9 411.5,85.3 404.2,90.8 		"/>
		<polygon id="ej82dvxeu3j483-10" class="st3" points="411.2,85.8 422.2,77.5 430.6,88.4 419.6,96.7 		"/>
		<polygon id="ej82dvxeu3j484-10" class="st2" points="429.5,88.3 442.7,78.4 452.8,91.8 439.6,101.7 		"/>
		<polygon id="ej82dvxeu3j485-10" class="st2" points="413.5,64.6 418.3,61 422,65.9 417.1,69.6 		"/>
		<polygon id="ej82dvxeu3j486-10" class="st0" points="421.9,65.8 429.2,60.4 434.8,67.8 427.4,73.3 		"/>
		<polygon id="ej82dvxeu3j487-10" class="st3" points="434.5,68.1 445.4,60 453.7,70.9 442.7,79.2 		"/>
		<polygon id="ej82dvxeu3j488-10" class="st2" points="452.6,70.6 466,60.8 476,74.1 462.7,83.9 		"/>
	</g>
</g>
</svg>
