<?xml version="1.0" encoding="utf-8"?>
<!-- Generator: Adobe Illustrator 26.4.1, SVG Export Plug-In . SVG Version: 6.00 Build 0)  -->
<svg version="1.1" id="Layer_2_00000152239103915927699890000013890495420882104483_"
	 xmlns="http://www.w3.org/2000/svg" xmlns:xlink="http://www.w3.org/1999/xlink" x="0px" y="0px" viewBox="0 0 733.4 485"
	 style="enable-background:new 0 0 733.4 485;" xml:space="preserve">
<style type="text/css">
	.st0{fill:#02E2AC;}
	.st1{fill:#5932C4;}
	.st2{fill:#6F3FF5;}
	.st3{fill:#F35890;}
</style>
<g id="_05">
	<path id="Hooves-8" class="st0" d="M609.2,430.5c5.1,8.7,16.3,14.5,21.5,23.2c-8.1-0.6-25-2.1-33.2-2.7c1.3-8.7,2.4-8.4,0.6-10
		c-1-1-2.4-1.5-3.6-3.1c-0.2-0.1-0.3-0.5-0.5-0.8c-1.8-3.5,1.2-7.5,5.1-7.2C602.5,430.1,605.9,430.2,609.2,430.5L609.2,430.5z
		 M632.5,368.9c-1,0.8-2.4,2.1-2.7,4c-0.2,1.8,0.9,3,1.5,4.5c0.6,2-4.5,2.2-9.3,7.8c5.7,3.5,21.8,13.2,27.3,16.8
		c0.6-8-3-23.7-1.3-31.6C643.5,368.3,636.9,370.8,632.5,368.9L632.5,368.9z M196.6,446.9c-1.8,0-3.3,1.6-3,3.5
		c0.1,1,0.4,2.1,1.2,3.1c1.2,1.4,2.4,1.6,3.6,2.5c1.8,1.4-1.1,4.2-1.9,11.4l32.1,0.5L207,444.5C202.9,444.5,200.5,446.9,196.6,446.9
		z M45.1,385.2c-1.7-1.6-4-3.6-6.8-3.3c-2.1,0.1-3.2,1.4-4.8,2c-2.2,0.8-1-0.6-7-5.4c-5.7,7.5-19.4,31.4-19.4,31.4l33.9-11.5
		C41.1,398.1,41.7,389.9,45.1,385.2L45.1,385.2z"/>
	<path id="BodyB-8" class="st1" d="M273.5,190.2c10.5,23.7-0.1,51.4-23.9,61.9c-0.4,0.1-0.8,0.3-1.2,0.4
		c-18.1,14.7-87.4,41.8-92.2,43.3c-18.3,7.1-26.6,11.8-30,14.1c-2.1,2.2-4.8,3.6-7.9,4.1C90.4,332.7,67,374.9,47,396.5
		c-1.2,1.3-2.8,1.8-4.3,1.5c-0.5,0.1-0.9,0.1-1.4,0.1c-4.8,0-8.7-3.9-8.7-8.7c0-3.6,2.2-6.8,5.4-8c25-26.7,43.9-65.6,69.1-91.7
		c0,0,0,0.1,0,0.1c0.8-0.7,1.8-1.3,2.8-1.8c18.4-12.9,20.4-14.3,39.7-27.7c7.4-7.5,16.5-18.4,24.6-33.4c4.1-7.6,7.4-15.1,9.8-22.1
		c1.6-16.4,33-54.7,49.1-61.7C256.8,132.6,263,166.5,273.5,190.2z M607.5,422.4c-11.9-24-30.3-62-42.7-87c-0.3-0.6-0.7-1.1-1.2-1.5
		c-0.2-0.4-0.3-0.8-0.5-1.2c-1.3-2.9-3.5-5.1-6.2-6.5c-4.8-14.5-13-31-19.5-40.5c7.3-5.1,4.7-24.3,4.7-24.5
		c9.8-34.5-9.6-83.1-41.7-66.8c-3.1,1.6-6.3,3.6-9.1,5.7c-28.6,21.1-28.2,56.7-26.9,61.8c1.2,4.5,1.2,11.5,6.9,26.4
		c6.5,16.5,37,33.5,64.9,52.8c0.2,1.2,0.5,2.3,1.1,3.5c1.3,2.7,3.4,4.8,5.9,6.2c0.1,0.3,0.2,0.6,0.4,0.9
		c13.8,21.1,33.6,54.6,47.6,76.1c-0.1,0.4-0.2,0.9-0.2,1.3c-0.6,5.4,3.6,10.3,9.3,10.9c5.7,0.6,10.8-3.3,11.3-8.8
		C611.9,427.8,610.3,424.5,607.5,422.4L607.5,422.4z"/>
	<path id="BodyF-8" class="st2" d="M675.5,108.5c-9.8-11.8-16.3-22.3-20.2-28.7c-1.8-2.8-4.7-6.8-9.2-10.3c-5.1-4.2-10-6.3-13.3-7.5
		h-0.3l-20-21l3.1,14.2l-16-15.8l6,22.4c-1.8,0.7-4.7,2-8,4.1c-40.4-10.2-94,40.8-145.7,55.8c-3.9,1.1-12.7,3.6-19.5,6.7
		c0,0-0.1,0-0.1,0.1C313,184.4,335.8,104.7,239.5,140c-25.5,9.3-44.2,45.3-43.6,62.9c-1.6,26.1,4.9,41,17.4,49.7
		c2.2,4.8,5.5,8.9,10.2,11.5c11.8,39.2-17.6,49.7-36.8,64.2c-0.7,0.4-1.4,1-1.9,1.5c-0.3,0.3-0.6,0.5-1,0.8c-0.7,0.5-1.1,1.3-1.2,2
		c-1.5,2.6-1.9,5.8-1.2,8.8c-0.1,0.4-0.1,0.8,0,1.2c3.8,34.8,7.6,69.4,11.4,104.1c0.1,0,0.2,0,0.3,0c-0.1,0.5-0.1,1-0.1,1.5
		c0,4.4,3.4,8,7.5,8s7.5-3.6,7.5-8c0-1.3-0.3-2.6-0.9-3.7c0.7-33.4,1.3-66.6,2-99.9c14.1-6.1,37.6-20.5,53.3-32.9
		c12.3-9.6,20.5-20,26-27.9c1.8-4,4-9.5,5.6-16.5c84.5,8,111.2,42.9,172.5,27.3c14.8,7.6,33.4,6.9,48.4-3.1c1.3-0.1,2.7-0.5,4-0.8
		l71.2,12.2c2.7,2.5,6.2,4,10.1,4c0.1,0,0.2,0,0.3,0c-0.1,0.2-0.2,0.3-0.3,0.5c9.6,18.5,20.1,40.9,29.8,60.3c-0.3,2,0,4,1.1,5.8
		c2.5,4.3,8.2,5.7,12.6,3.1s6-8.2,3.5-12.5c-0.3-0.5-0.6-0.9-0.9-1.3c-7.3-17.5-22.1-52.6-31.3-74.4c-1.1-5.8-5.4-10.4-10.9-12
		c-22.5-12.9-44.9-25.6-67.6-38.5c-1.8-4.9-4.7-10.3-9.2-15.2c1-0.9,1.7-2.1,2-3.8c9.3-47.5,38.4-67.8,57.7-91.5
		c4.5,6.3,9.8,11.1,14.5,13.4c8.1,3.9,15.2,4.2,15.2,4.2c2.4,0.1,6.5,0,10.3-0.4c3.8-0.3,4.8-0.6,7-0.6c4.3,0.1,7.7,1.4,9.9,2.2
		c5.4,2.1,16.5,6.6,30.9,13.1c0,0,4.2,1.9,11.8,5.7c1.2,0.6,7.5,4.1,13.5,1.4c6.6-3,8-11.2,8.1-12.3
		C709.9,140.6,694.6,131.6,675.5,108.5L675.5,108.5z M640.9,95.4l-5.4-5.4l5.4-5.4l5.4,5.4L640.9,95.4z M699.1,146.4l-2.2-2.2
		l2.2-2.2l2.2,2.2L699.1,146.4z"/>
	<g id="Horn-8">
		<path id="ej82dvxeu3j303" class="st0" d="M655.2,70.5l-6,4.5l0,0c-2.1,1.8-0.6,4.9,2.1,7.9c2.7,3.2,5.7,4.9,7.8,3.2l0,0l5.2-5.2
			c-2.4-0.3-4.7-1.5-6.5-3.4C656,75.3,655.1,72.9,655.2,70.5L655.2,70.5z"/>
		<path id="ej82dvxeu3j304" class="st3" d="M663.4,64.4l-8.1,6.2c0,2.4,0.9,4.8,2.5,6.9c1.8,1.9,4,3.2,6.5,3.4l7-7.2
			c-2.1-0.4-3.9-1.5-5.4-3.3S663.5,66.5,663.4,64.4z"/>
		<path id="ej82dvxeu3j305" class="st0" d="M700.5,43.7l7.3-7.5c-0.6-0.5-1-0.9-1.5-1.3c-0.5-0.6-0.9-1-1.2-1.7l-8.4,6.3
			c0.5,0.9,0.9,1.7,1.7,2.4C698.9,42.6,699.7,43.2,700.5,43.7L700.5,43.7z"/>
		<path id="ej82dvxeu3j306" class="st3" d="M707.8,36.2l18.6-19L705.1,33c0.3,0.6,0.8,1.2,1.2,1.7C706.8,35.3,707.3,35.7,707.8,36.2
			z"/>
		<path id="ej82dvxeu3j307" class="st2" d="M698.2,41.9c-0.6-0.8-1.2-1.5-1.7-2.4l-8.4,6.3c0.5,1.2,1,2.2,2,3.2s1.8,1.8,2.8,2.2
			l7.3-7.5C699.7,43.2,698.9,42.6,698.2,41.9L698.2,41.9z"/>
		<path id="ej82dvxeu3j308" class="st3" d="M688.3,45.8l-8.4,6.3c0.5,1.5,1.2,2.8,2.2,4s2.4,2.1,3.8,2.7l7.3-7.5
			c-1-0.6-2.1-1.3-2.8-2.2S688.6,46.8,688.3,45.8z"/>
		<path id="ej82dvxeu3j309" class="st2" d="M671.5,58.2l-8.2,6.1c0.2,2.1,1,4.1,2.5,5.8c1.5,1.8,3.5,2.8,5.4,3.3l7.2-7.3
			c-1.7-0.6-3.3-1.5-4.5-3S672,60,671.5,58.2z"/>
		<path id="ej82dvxeu3j310" class="st0" d="M679.9,52.1l-8.2,6.2c0.3,1.8,1.2,3.5,2.4,5c1.3,1.5,2.8,2.4,4.5,3l7.2-7.3
			c-1.3-0.6-2.7-1.5-3.8-2.7C681,54.8,680.4,53.4,679.9,52.1L679.9,52.1z"/>
	</g>
	<g id="Tail-8">
		<polygon id="ej82dvxeu3j473-8" class="st2" points="214.7,162.2 179.2,139.9 218.1,124.4 253.7,146.7 		"/>
		<polygon id="ej82dvxeu3j474-8" class="st0" points="172.4,152.9 146.2,136.6 174.9,125 201,141.5 		"/>
		<polygon id="ej82dvxeu3j475-8" class="st3" points="131.1,146.4 110.4,133.4 133.1,124.3 153.9,137.3 		"/>
	</g>
	<g id="Mane-8">
		<polygon id="ej82dvxeu3j477-8" class="st2" points="451.2,79.2 456.7,76.4 459.6,81.9 454.1,84.7 		"/>
		<polygon id="ej82dvxeu3j478-8" class="st0" points="459.3,81.9 467.4,77.6 471.7,85.7 463.6,90 		"/>
		<polygon id="ej82dvxeu3j479-8" class="st3" points="471.4,86 483.6,79.8 490,91.9 477.9,98.3 		"/>
		<polygon id="ej82dvxeu3j480-8" class="st2" points="489,91.4 503.6,83.9 511.4,98.6 496.8,106.2 		"/>
		<polygon id="ej82dvxeu3j481-8" class="st2" points="477,65.2 482.5,62.4 485.3,67.9 480,70.7 		"/>
		<polygon id="ej82dvxeu3j482-8" class="st0" points="485,67.8 493.1,63.5 497.4,71.7 489.3,76 		"/>
		<polygon id="ej82dvxeu3j483-8" class="st3" points="497,72.1 509.2,65.7 515.7,77.9 503.6,84.2 		"/>
		<polygon id="ej82dvxeu3j484-8" class="st2" points="514.7,77.5 529.3,69.9 537.1,84.7 522.5,92.3 		"/>
		<polygon id="ej82dvxeu3j485-8" class="st2" points="502.7,51.6 508,48.8 510.9,54.3 505.4,57 		"/>
		<polygon id="ej82dvxeu3j486-8" class="st0" points="510.8,54.1 518.9,50 523.2,58.1 515,62.4 		"/>
		<polygon id="ej82dvxeu3j487-8" class="st3" points="522.8,58.3 535,52.1 541.3,64.2 529.2,70.6 		"/>
		<polygon id="ej82dvxeu3j488-8" class="st2" points="540.3,63.8 555.1,56.3 562.9,70.9 548.1,78.6 		"/>
	</g>
</g>
</svg>
