<?xml version="1.0" encoding="utf-8"?>
<!-- Generator: Adobe Illustrator 26.4.1, SVG Export Plug-In . SVG Version: 6.00 Build 0)  -->
<svg version="1.1" id="Layer_2_00000132080119616912102540000009942489648174734245_"
	 xmlns="http://www.w3.org/2000/svg" xmlns:xlink="http://www.w3.org/1999/xlink" x="0px" y="0px" viewBox="0 0 733.4 485"
	 style="enable-background:new 0 0 733.4 485;" xml:space="preserve">
<style type="text/css">
	.st0{fill:#02E2AC;}
	.st1{fill:#5932C4;}
	.st2{fill:#6F3FF5;}
	.st3{fill:#F35890;}
</style>
<g id="_06">
	<path id="Hooves-7" class="st0" d="M136.1,431.4l13.4,29l-30.3-10.2c3-6.8,6.6-8.5,5.4-10.4c-0.9-1.2-2.1-1.8-2.7-3.5
		c-0.4-1-0.4-2.2-0.3-3.3c0.3-1.8,2.1-3,3.9-2.4C129.2,431.8,132.3,430.2,136.1,431.4z M526.7,453.3c-3.9,0.1-6.5,4.4-4.5,7.6
		c0.2,0.3,0.3,0.5,0.6,0.8c1.3,1.6,2.7,2,3.9,2.9c2,1.5,0.8,1.4,0.3,10c8.1-0.1,25.2-0.1,33.3-0.3c-5.8-8.2-17.5-13-23.4-21.3
		C533.4,453.1,530.1,453.1,526.7,453.3L526.7,453.3z M661.7,405c0.2,1.4,0.6,3.1,2.1,4.4s3.2,0.8,4.7,1c2.1,0.5-0.3,5.1,2.1,12
		c5.8-3.1,22.3-12.1,28.2-15.3c-6.6-4.5-22-9.3-28-14.7C666.6,395.2,665.6,402.1,661.7,405z M39.6,373.9c-1.5-1.8-3.8-3.8-6.6-3.9
		c-2.1,0-3.1,1.2-5,1.6c-2.4,0.6-1-0.6-6.6-6c-6.1,7-21.5,29.9-21.5,29.9l34.7-9.1C34.7,386.5,35.9,378.4,39.6,373.9z"/>
	<path id="BodyB-7" class="st1" d="M280.8,195.3c8.9,24.3-3.8,51.3-28.1,60.2c-0.4,0.1-0.8,0.3-1.2,0.4
		c-19.1,13.3-90,35.6-94.9,36.7c-19.8,6.7-26.7,9.8-30.6,11.9c-2.2,2.1-5.2,3.5-8.4,3.8c-29.1,16.6-55.4,57-76.8,77
		c-1.3,1.2-2.9,1.6-4.3,1.3c-0.3,0-0.6,0-0.9,0c-4.8,0-8.7-3.9-8.7-8.7c0-3.9,2.6-7.2,6.2-8.3c26-24.2,47.2-60.1,72.9-84.5
		c0.6-0.7,1.3-1.3,2-1.9c0.1-0.1,0.2-0.2,0.3-0.3c0,0,0,0,0,0c1.8-1.2,3.8-2.1,6-2.4c15.9-9.8,19-12.8,37.8-24.2
		c7.9-6.9,17.9-17.2,27-31.6c4.8-7.4,8.4-14.6,11.4-21.3c11.9-26.3,27.7-51,44.2-57C259,137.7,271.9,171,280.8,195.3L280.8,195.3z
		 M537.3,446.5c-2.4-26.8-5.8-67-8.2-93.9c0-0.2-0.1-0.5-0.1-0.7c0-0.1,0-0.1,0-0.2c-0.2-3.6-1.8-6.7-4.3-9c1-15.5-0.8-34.8-3.5-46
		c8.7-2.2,12.9-21.1,13-21.3c21.5-28.8,20.7-81-15-77.2c-3.6,0.3-7.2,1.1-10.6,1.9c-34.4,9.4-46.6,42.8-47.2,48
		c-0.5,4.6-3,11.2-3,27.2c0.1,18,23.3,45.4,42.7,74c-0.4,1.4-0.5,2.9-0.4,4.5c0.2,2.8,1.3,5.4,2.9,7.5c5.6,26,12.3,66.5,17.8,90.9
		c0,0,0.1,0,0.1,0c-0.2,0.8-0.3,1.5-0.3,2.4c-0.1,5.5,4.5,10,10.2,10.1c5.7,0.1,10.4-4.2,10.5-9.7
		C541.8,451.3,540,448.3,537.3,446.5L537.3,446.5z"/>
	<path id="BodyF-7" class="st2" d="M695.2,108c-11.2-10.3-19.3-19.8-24-25.5c-2.1-2.6-5.5-6-10.5-9c-5-3.1-9.8-4.5-13.2-5.3
		l-18.3-20.8l1.4,15.3l-14.4-15.2l2.8,20.7C577,58,507,109.7,453,124.4c-7.4,2-14.7,4.3-21.9,6.9c-112.4,42.1-94-24-189.5,11
		c-13.4,4.9-24.9,17.1-32.8,30.2c-7.9,8.6-13.3,26.9-13.3,48.2c0,20.1,4.9,37.5,12.1,46.7c-1.9,36.3-28.8,39.3-50.7,46
		c-0.8,0-1.5,0.1-2.3,0.2c-7,1.3-11.9,7.5-11.7,14.4c-7.1,33.6-14.1,67.4-21,101.1c0.1,0,0.2,0.1,0.3,0.1c-0.2,0.5-0.5,1-0.6,1.5
		c-1.4,4.2,0.7,8.6,4.7,9.9c3.9,1.3,8.2-1.1,9.6-5.2c0.4-1.4,0.5-2.8,0.3-4.1c11-31.3,21.9-62.8,32.9-94.2
		c15.3-1.5,42.1-8,60.9-14.8c14.7-5.4,25.8-12.6,33.3-18.5c5.2-6,13.8-16.8,19-32.7c0.3-0.8,0.5-1.5,0.7-2.3c3,0.2,6.1,0.3,9.2,0.5
		c88.6,7.4,114.8,44.4,178.6,27c1.8-0.4,3.6-0.9,5.4-1.4c11.9,13.4,31.2,19.3,49.5,13.9l4.2,0.4l65,32.7c3,5,8.5,8,14.2,7.4
		c14.2,15.6,32.1,36,46.5,51.5c0.7,4.5,4.4,8,9,7.9c5,0,9-4.2,8.9-9.4c0-2.5-1-4.7-2.5-6.3c-10.1-12.6-33.3-41.5-49.2-61.2
		c-0.1-0.5-0.2-1.1-0.4-1.6c-1.6-5.2-5.6-9-10.4-10.4c-16.5-17.9-32.4-38.4-48.9-56c-0.5-6.3,3-27.1,2.7-36.3
		c-0.4-9-3.9-26.3-10.2-38.2c15.5-22.4,39.4-34,56.3-49.2c5,5,10.5,8.6,15.1,10.1c8.5,2.7,15.5,2.1,15.5,2.1
		c2.4-0.3,6.3-0.9,10.2-1.8c3.8-0.9,4.7-1.4,6.9-1.5c4.3-0.4,7.7,0.3,10,0.9c5.7,1.4,17.2,4.4,32.4,8.6c0,0,4.3,1.4,12.5,4.1
		c1.2,0.4,8,3,13.5-0.4c6.2-3.9,6.3-12.3,6.3-13.4C733.8,135.1,717.3,128.2,695.2,108L695.2,108z M659.1,99.9l-6.2-4.5l4.5-6.2
		l6.2,4.5L659.1,99.9z M723.9,142.3l-2.5-1.9l2-2.6l2.5,1.9L723.9,142.3z"/>
	<g id="Tail-7">
		<polygon id="ej82dvxeu3j473-7" class="st2" points="222.6,157 187.1,134.7 226,119.2 261.5,141.5 		"/>
		<polygon id="ej82dvxeu3j474-7" class="st0" points="180.3,147.7 154.1,131.4 182.8,119.8 208.9,136.3 		"/>
		<polygon id="ej82dvxeu3j475-7" class="st3" points="139,141.2 118.3,128.2 141,119.1 161.8,132.1 		"/>
	</g>
	<g id="Mane-7">
		<polygon id="ej82dvxeu3j477-7" class="st2" points="472.1,71.6 477.7,69.2 480.3,74.8 474.7,77.3 		"/>
		<polygon id="ej82dvxeu3j478-7" class="st0" points="480,74.8 488.4,71 492.2,79.4 483.8,83.2 		"/>
		<polygon id="ej82dvxeu3j479-7" class="st3" points="491.8,79.6 504.4,74.2 510.1,86.7 497.5,92.3 		"/>
		<polygon id="ej82dvxeu3j480-7" class="st2" points="509.1,86.2 524.1,79.6 531,94.7 516,101.4 		"/>
		<polygon id="ej82dvxeu3j481-7" class="st2" points="498.8,59.2 504.4,56.8 506.8,62.4 501.3,64.8 		"/>
		<polygon id="ej82dvxeu3j482-7" class="st0" points="506.5,62.3 514.9,58.5 518.7,66.9 510.3,70.7 		"/>
		<polygon id="ej82dvxeu3j483-7" class="st3" points="518.3,67.3 530.8,61.7 536.6,74.2 524.1,79.8 		"/>
		<polygon id="ej82dvxeu3j484-7" class="st2" points="535.6,73.8 550.6,67.1 557.5,82.3 542.4,89.1 		"/>
		<polygon id="ej82dvxeu3j485-7" class="st2" points="525.2,47.2 530.6,44.7 533.2,50.4 527.6,52.8 		"/>
		<polygon id="ej82dvxeu3j486-7" class="st0" points="533.1,50.2 541.4,46.6 545.2,55 536.8,58.8 		"/>
		<polygon id="ej82dvxeu3j487-7" class="st3" points="544.9,55.2 557.3,49.7 563,62.2 550.5,67.8 		"/>
		<polygon id="ej82dvxeu3j488-7" class="st2" points="562,61.7 577.2,55.1 584.1,70.2 568.9,76.9 		"/>
	</g>
	<g id="Horn-7">
		<path id="ej82dvxeu3j265" class="st0" d="M669.8,73.2l-5.2,5.2l0,0c-1.8,2.1,0,4.9,3.2,7.7c3.2,2.7,6.3,4.2,8.1,2.1l0,0l4.3-6
			c-2.4,0-4.8-0.8-6.9-2.6C671.4,78,670.2,75.6,669.8,73.2L669.8,73.2z"/>
		<path id="ej82dvxeu3j266" class="st3" d="M677,66.1l-7.2,7.2c0.3,2.4,1.5,4.7,3.6,6.4c2,1.7,4.5,2.6,6.9,2.6l6-8.2
			c-2.1-0.2-4.2-1.1-5.8-2.6C678.6,70,677.6,68.1,677,66.1z"/>
		<path id="ej82dvxeu3j267" class="st0" d="M710.8,40.5l6.3-8.5c-0.6-0.3-1.2-0.8-1.7-1.2s-1-0.9-1.3-1.5l-7.5,7.5
			c0.5,0.8,1.2,1.5,2,2.1C709.2,39.6,709.9,40,710.8,40.5z"/>
		<path id="ej82dvxeu3j268" class="st3" d="M717.2,31.9l15.8-21.5l-18.8,18.8c0.5,0.6,0.9,1,1.3,1.5C716,31.2,716.5,31.6,717.2,31.9
			z"/>
		<path id="ej82dvxeu3j269" class="st2" d="M708.5,39c-0.8-0.6-1.3-1.3-2-2.1l-7.5,7.3c0.6,1,1.3,2.1,2.4,2.8c1,0.9,2.1,1.5,3.2,2
			l6.3-8.5C710,40,709.2,39.6,708.5,39z"/>
		<path id="ej82dvxeu3j270" class="st3" d="M699.2,44.2l-7.3,7.3c0.6,1.3,1.5,2.7,2.7,3.8s2.5,1.8,4,2.1l6.2-8.4
			c-1.2-0.5-2.2-1-3.2-2C700.5,46.2,699.6,45.3,699.2,44.2z"/>
		<path id="ej82dvxeu3j271" class="st2" d="M684.3,58.8L677,66c0.5,1.9,1.7,3.9,3.3,5.4s3.8,2.2,5.8,2.6l6.2-8.2
			c-1.8-0.3-3.5-1.1-5-2.4C686,62.1,684.9,60.6,684.3,58.8z"/>
		<path id="ej82dvxeu3j272" class="st0" d="M691.7,51.6l-7.3,7.3c0.6,1.7,1.7,3.3,3,4.5c1.5,1.2,3.2,2.1,5,2.4l6.2-8.4
			c-1.5-0.5-2.8-1-4-2.1C693.2,54.1,692.3,52.9,691.7,51.6L691.7,51.6z"/>
	</g>
</g>
</svg>
