<?xml version="1.0" encoding="utf-8"?>
<!-- Generator: Adobe Illustrator 26.4.1, SVG Export Plug-In . SVG Version: 6.00 Build 0)  -->
<svg version="1.1" id="Layer_2_00000005963612809249176700000009544499930958636178_"
	 xmlns="http://www.w3.org/2000/svg" xmlns:xlink="http://www.w3.org/1999/xlink" x="0px" y="0px" viewBox="0 0 733.4 485"
	 style="enable-background:new 0 0 733.4 485;" xml:space="preserve">
<style type="text/css">
	.st0{fill:#F35890;}
	.st1{fill:#5932C4;}
	.st2{fill:#6F3FF5;}
	.st3{fill:#02E2AC;}
</style>
<g id="_07">
	<path id="Hooves-6" class="st0" d="M425.8,453.6c5.7,8.2,17.4,13.2,23.1,21.6c-8.1,0.1-25.2-0.1-33.3-0.1c0.6-8.7,1.6-8.5-0.1-10
		c-1.2-0.9-2.7-1.2-3.9-2.9c-0.1-0.3-0.3-0.5-0.5-0.8c-2.1-3.3,0.6-7.5,4.5-7.5C418.9,453.9,422.4,453.9,425.8,453.6L425.8,453.6z
		 M597.5,434.9c-0.5,1.2-1,3.1-0.3,4.8c0.8,1.8,2.4,2.1,3.5,3.1c1.5,1.4-2.7,4.2-4.2,11.4c6.6,0.1,25.3,0.6,32.1,0.8
		c-3.5-7.2-14.5-19-17.1-26.7C606.6,428.9,602.3,434.3,597.5,434.9L597.5,434.9z M84.3,391.2c-0.2-1.8-1.9-3.1-3.8-2.7
		c-1.1,0.3-2.1,0.8-3,1.5c-1.3,1.2-1.3,2.5-2.2,3.8c-1.2,1.8-4.2-0.8-11.5-1l2,32l21.8-23.2C87.3,397.5,84.6,395.3,84.3,391.2z
		 M76.5,347.7c-2.1-1.2-4.8-2.4-7.5-1.5c-1.9,0.8-2.6,2.1-4.2,3.1c-2,1.4-1.2-0.3-8.2-3.5c-3.6,8.7-10.3,35.2-10.3,35.2l29.7-20.1
		C76.1,361.2,74.6,353.1,76.5,347.7L76.5,347.7z"/>
	<path id="BodyB-6" class="st1" d="M308.1,190.8c2.9,25.8-15.8,48.9-41.5,51.8c-0.5,0.1-0.9,0.1-1.4,0.1
		c-21.8,8.4-96,13.1-101.1,13.1c-29.7,0-35.4,6-35.4,6s0.3,0.8,0,0c-21.6,25.4-33.8,70.5-47.2,96.3c-0.8,1.5-2.2,2.4-3.6,2.6
		c-1.6,0.8-3.5,1.1-5.5,0.7c-3.7-0.7-6.5-3.8-6.9-7.5c-0.3-3.2,1-6,3.3-7.8c17.1-32.2,25.3-74.9,42.7-106.7c0,0.1,0.1,0.1,0.1,0.2
		c2.5-3.6,6.7-6,11.5-6c1.2,0,2.4,0.2,3.6,0.5c17.4-5.6,21.3-7.9,42-14.3c9.3-4.8,21.4-12.4,33.8-24.3c6.3-6,11.6-12.1,16.1-18
		c6.4-15,20.6-26.1,37.9-28.1C282.2,146.4,305.3,165,308.1,190.8L308.1,190.8z M520.4,223.7c-3.3-1.5-6.8-2.9-10.2-3.8
		c-34.2-9.4-62,12.9-65.1,17.1c-2.9,3.6-8.4,8.1-16.5,21.8c-9.2,15.6-3.2,51.5-1.2,86.1c-1,1.3-1.7,2.8-2.1,4.4
		c-0.4,1.6-0.5,3.2-0.4,4.8c0.1,1.1-0.2,2.1-0.6,3.1c-0.1,0.2-0.2,0.5-0.2,0.8c-3,26.3-9.8,67.1-12.6,92.5c-0.9,1.4-1.4,3-1.5,4.8
		c-0.2,5.5,4.3,10,10,10.2s10.5-4.1,10.7-9.6c0.1-2.4-0.7-4.5-2.1-6.3c6.1-25.4,15.3-62.5,21.7-88.1c1.1-1.4,2-3.1,2.5-4.9
		c0.7-2.8,0.5-5.6-0.4-8.2c8.1-12.5,15.7-28.6,19.2-39.1c8.5,2.5,21.9-11.4,22-11.5C526.8,284,553.1,238.8,520.4,223.7L520.4,223.7z
		"/>
	<path id="BodyF-6" class="st2" d="M727.1,145.8c-0.5-13.2-17.4-19.2-40.5-38.2c-11.8-9.8-20.4-18.6-25.3-24.2
		c-2.2-2.4-5.8-5.7-11.1-8.4c-5.5-3-10.6-4.1-14.1-4.7l-21.3-19.2l3.9,15L601.8,52l6.1,19.8c-45.5-8.9-125.3,41.6-173.9,51h0
		c-0.6,0-1.1,0.2-1.6,0.3c-126,43.8-100.8-25.8-200.7,5.3c-25.9,8.1-49.4,43.1-49.7,60.6c-1.3,11.9,2.3,40,6.1,51.2
		c1.1,3.1,1.1,6.6,0.2,9.7c-10,35.3-41.2,29.4-64.2,34.2c-0.1,0-0.2,0-0.3,0.1c-0.1,0-0.1,0-0.2,0c-0.1,0-0.2,0.1-0.3,0.1
		c-3.7,1-6.4,4.2-6.8,8.1c-0.3,0.4-0.6,0.8-0.7,1.2c-12.6,32-25.3,64.2-38,96.2c-1.6,1.5-2.5,3.6-2.4,5.9c0.3,4.1,4.1,7.2,8.5,6.9
		c4.2-0.3,7.4-3.6,7.4-7.5c14.4-26,28.8-52.2,43.3-78.2c5-1,9.1-4.2,11.5-8.5c15.8,0.3,38.8-1.5,55.9-4.5
		c15.3-2.7,27.4-8.1,35.8-12.6c6.3-4.8,16.6-14.1,24.5-28.8c1.1-2,2.1-4,2.9-6.1c3.5,0.4,7.1,0.7,10.7,1.1
		c88.2,11.7,112.5,50,177,35.7c1.6-0.3,3.1-0.6,4.6-0.9c9,9.5,21.8,15.3,35.9,15c1.2,0.5,2.4,1,3.8,1.5l53.8,49.4
		c1.5,5.5,5.8,9.8,11.3,10.8c9.8,18.9,21.7,43.9,31.4,63c0.2,3,1.8,5.8,4.5,7.3c4.3,2.4,9.9,0.8,12.4-3.7c2.3-4.1,1.3-9-2.2-11.8
		c-6.9-16.3-19.7-46.3-28.8-67.6c0.1-0.7,0.2-1.5,0.2-2.3c-0.1-5.7-3.2-10.5-7.6-13c-10.9-21.6-20.6-45.6-31.7-67.1
		c1.2-6.3,10.3-25.4,12.5-34.2c3.2-12.9,4.5-45.7-6.7-54c16.9-19,40-28.9,56.3-42.9c5.7,5.5,12,9.3,17.2,10.6
		c8.7,2.2,15.6,1.2,15.6,1.2c2.2-0.3,6.3-1.2,10-2.4c3.6-1.1,4.5-1.5,6.8-1.9c4.3-0.8,7.8-0.1,10.2,0.3c5.7,1.1,17.4,3.3,32.8,6.8
		c0,0,4.5,1.2,12.8,3.3c1.2,0.4,8.1,2.6,13.5-1.2C727.4,155.2,727.3,146.8,727.1,145.8L727.1,145.8z M650,101.6l-6.3-4.2l4.2-6.3
		l6.3,4.2L650,101.6z M717,140.3l-2.7-1.8l1.8-2.7l2.7,1.8L717,140.3z"/>
	<g id="Horn-6">
		<path id="ej82dvxeu3j225" class="st0" d="M659.3,74.3l-5,5.6l0,0c-1.7,2.2,0.3,4.9,3.6,7.3c3.3,2.6,6.6,3.8,8.2,1.7l0,0l4-6.2
			c-2.4,0.2-5-0.6-7-2.1S659.7,76.7,659.3,74.3L659.3,74.3z"/>
		<path id="ej82dvxeu3j226" class="st2" d="M666,66.8l-6.8,7.5c0.5,2.4,1.8,4.7,3.9,6.2c2.1,1.5,4.7,2.2,7,2.1l5.5-8.6
			c-2.1,0-4.2-0.8-6-2.1S666.6,68.7,666,66.8z"/>
		<path id="ej82dvxeu3j227" class="st0" d="M698.4,39.3l5.8-8.9c-0.6-0.3-1.2-0.6-1.8-1s-1-0.9-1.5-1.4l-7,7.8
			c0.6,0.8,1.2,1.5,2.1,2.1C696.8,38.6,697.5,39,698.4,39.3z"/>
		<path id="ej82dvxeu3j228" class="st2" d="M704.3,30.5l14.5-22.2L701,27.9c0.5,0.5,0.9,0.9,1.5,1.4S703.7,30.2,704.3,30.5z"/>
		<path id="ej82dvxeu3j229" class="st3" d="M695.9,37.8c-0.8-0.6-1.5-1.3-2.1-2.1l-7,7.8c0.6,1,1.5,2,2.5,2.7s2.1,1.3,3.3,1.7
			l5.7-8.9C697.5,39,696.8,38.6,695.9,37.8z"/>
		<path id="ej82dvxeu3j230" class="st2" d="M686.9,43.7l-7,7.8c0.8,1.3,1.7,2.5,3,3.5s2.7,1.7,4.2,2l5.7-8.7
			c-1.2-0.3-2.2-0.9-3.3-1.7C688.4,45.6,687.5,44.7,686.9,43.7L686.9,43.7z"/>
		<path id="ej82dvxeu3j231" class="st3" d="M672.9,59.1l-6.9,7.7c0.6,1.9,1.8,3.9,3.6,5.2s3.9,2.1,6,2.1l5.5-8.6
			c-1.8-0.3-3.5-0.9-5.1-2.1C674.7,62.3,673.7,60.8,672.9,59.1L672.9,59.1z"/>
		<path id="ej82dvxeu3j232" class="st0" d="M679.8,51.5l-6.9,7.7c0.8,1.7,1.8,3.2,3.3,4.3s3.3,1.8,5.1,2.1l5.7-8.7
			c-1.5-0.3-2.8-0.9-4.2-2C681.5,53.9,680.6,52.8,679.8,51.5L679.8,51.5z"/>
	</g>
	<g id="Tail-6">
		<polygon id="ej82dvxeu3j473-6" class="st2" points="208.4,146.2 172.9,123.9 211.8,108.5 247.4,130.7 		"/>
		<polygon id="ej82dvxeu3j474-6" class="st3" points="166.1,136.9 139.9,120.6 168.6,109.1 194.7,125.5 		"/>
		<polygon id="ej82dvxeu3j475-6" class="st0" points="124.8,130.4 104.1,117.4 126.8,108.4 147.6,121.4 		"/>
	</g>
	<g id="Mane-6">
		<polygon id="ej82dvxeu3j477-6" class="st2" points="463.4,67.9 469.3,66.1 471.2,72 465.4,73.8 		"/>
		<polygon id="ej82dvxeu3j478-6" class="st3" points="471,71.9 479.7,69 482.6,77.8 473.8,80.6 		"/>
		<polygon id="ej82dvxeu3j479-6" class="st0" points="482.2,78 495.3,73.9 499.5,86.9 486.5,91.2 		"/>
		<polygon id="ej82dvxeu3j480-6" class="st2" points="498.7,86.3 514.3,81.4 519.5,97.1 503.8,102.2 		"/>
		<polygon id="ej82dvxeu3j481-6" class="st2" points="491.3,58.4 497.1,56.6 498.9,62.5 493.2,64.3 		"/>
		<polygon id="ej82dvxeu3j482-6" class="st3" points="498.6,62.4 507.4,59.5 510.3,68.3 501.5,71.1 		"/>
		<polygon id="ej82dvxeu3j483-6" class="st0" points="509.8,68.6 522.9,64.3 527.2,77.4 514.2,81.7 		"/>
		<polygon id="ej82dvxeu3j484-6" class="st2" points="526.3,76.9 542,71.9 547.2,87.8 531.5,92.8 		"/>
		<polygon id="ej82dvxeu3j485-6" class="st2" points="518.8,49.3 524.5,47.5 526.5,53.4 520.6,55.2 		"/>
		<polygon id="ej82dvxeu3j486-6" class="st3" points="526.4,53.2 535.1,50.5 538,59.2 529.2,62.1 		"/>
		<polygon id="ej82dvxeu3j487-6" class="st0" points="537.6,59.4 550.6,55.3 554.8,68.3 541.8,72.6 		"/>
		<polygon id="ej82dvxeu3j488-6" class="st2" points="553.9,67.7 569.7,62.8 574.9,78.6 559.1,83.6 		"/>
	</g>
</g>
</svg>
