<?xml version="1.0" encoding="utf-8"?>
<!-- Generator: Adobe Illustrator 26.4.1, SVG Export Plug-In . SVG Version: 6.00 Build 0)  -->
<svg version="1.1" id="Layer_2_00000087397787922483448200000009888867722755058088_"
	 xmlns="http://www.w3.org/2000/svg" xmlns:xlink="http://www.w3.org/1999/xlink" x="0px" y="0px" viewBox="0 0 733.4 485"
	 style="enable-background:new 0 0 733.4 485;" xml:space="preserve">
<style type="text/css">
	.st0{fill:#F35890;}
	.st1{fill:#5932C4;}
	.st2{fill:#6F3FF5;}
	.st3{fill:#02E2AC;}
</style>
<g id="_08">
	<path id="Hooves-5" class="st0" d="M65.9,369.6l-23.7,21.3l0.9-32.1c7.2,0.9,10,3.9,11.4,2.1c0.9-1.2,1-2.5,2.5-3.6
		c1-0.8,2.1-1,3.2-1.2c1.8-0.3,3.5,1.2,3.5,3C63.7,363,66.1,365.6,65.9,369.6L65.9,369.6z M323.1,442.4c-0.8-3.8-5.4-5.5-8.2-3
		c-0.3,0.1-0.5,0.5-0.6,0.6c-1.4,1.5-1.4,3-2.1,4.4c-1.2,2.1-1,1-9.9,2.1c1.5,8,4.5,24.8,6.1,32.7c7.2-7.2,9.8-19.6,16.8-26.9
		C324.5,449.1,323.7,445.8,323.1,442.4L323.1,442.4z M502.2,458.3c-0.5,1.2-1,3.1-0.1,4.8c0.8,1.6,2.4,2.1,3.6,3
		c1.6,1.4-2.7,4.2-3.9,11.5c6.6,0,25.4,0.1,32.1,0.1c-3.6-7.2-14.8-18.8-17.5-26.4C511.4,452.1,507.1,457.7,502.2,458.3L502.2,458.3
		z M102.8,340.4c-2.1-1-5.1-1.8-7.5-0.8c-1.9,0.9-2.4,2.4-3.8,3.6c-1.8,1.6-1.2-0.1-8.6-2.5c-2.7,9-6.6,36.1-6.6,36.1l27.5-23.1
		C103.7,353.9,101.3,345.9,102.8,340.4z"/>
	<path id="BodyB-5" class="st1" d="M273.9,236.8h-1.4c-21.9,7.5-96.3,9.6-101.4,9.4c-11-0.4-18.7,0.2-24.1,1.1
		c-0.5,0.4-0.9,0.7-1.4,1c-19.3,27.4-26,75.3-36.8,102.6c-0.7,1.7-2.1,2.7-3.6,3c-1.2,0.7-2.7,1.1-4.2,1.1c-4.8,0-8.7-3.9-8.7-8.7
		c0-2.5,1.1-4.8,2.8-6.3c13.3-33.2,17.2-75.2,30.3-108.4c0.1-0.3,0.2-0.7,0.4-1c0.1-0.3,0.4-1,0.4-0.9c2.6-4.2,9.3-7.1,11.2-7.2
		c15-4.4,19.6-6.6,39.3-11.9c9.4-4.5,21.8-11.7,34.5-23.1c6.6-6,12.1-11.9,16.8-17.6c7.1-14.7,21.6-25.4,39-26.7
		c25.8-1.9,48.3,17.6,50.2,43.3S299.7,234.8,273.9,236.8L273.9,236.8z M504.2,260.1c-2.4-2.7,8.5-5.2,5.9-7.6
		c-27.1-22.9-61.6-14.4-66.3-12c-4,2.1-11.1,3.8-24.1,12.8c-15,10.2-24.8,45.3-37.6,77.6c-2.2,0.8-4.2,2.1-5.8,4
		c-1.7,2-2.6,4.3-3,6.7c-13.5,22.2-42,72.5-55.5,95.1c-4.2,1.7-6.8,6.3-6,11.2c0.9,5.6,6,9.5,11.4,8.6c4.8-0.8,8.3-5.1,8.2-10.1
		c17-22,47.7-69.2,64.8-91.3c0.7-0.5,1.3-1.2,1.9-1.9c1.9-2.4,2.9-5.1,3-8c15.2-12,35.9-37.4,44.1-46.3c6.6,5.9,26.7-9.8,27-9.8
		C508.2,290.7,527.5,287.5,504.2,260.1L504.2,260.1z"/>
	<path id="BodyF-5" class="st2" d="M731,142.8c-1-13.1-18.2-18.4-41.8-36.6c-12.2-9.3-21.2-18-26.2-23.2c-2.4-2.4-6.2-5.4-11.2-7.9
		c-5.6-2.7-10.8-3.8-14.3-4.2l-23.7-20.2l5.5,15.9L600.7,52l8.3,21.2c-45.2-6.7-119.2,48.7-172.4,57.7
		c-130.1,38.2-97.9-33.4-199.7-7.6c-26.2,6.7-46.7,42.2-47.8,59.7c-2.4,14.8-1.8,26.1,1.3,35c-2,5.3-2.5,10.9-0.7,16.4
		c-18.8,38.7-49.5,22.8-74.2,21.8c-6.1-0.2-8.9,5.1-10.7,7.9c-0.4,0.4-0.7,0.8-1,1.3c-15.4,30.9-30.9,61.7-46.3,92.6
		c-1.7,1.4-2.7,3.3-2.8,5.6c-0.1,4.1,3.5,7.5,7.8,7.6c4.2,0.1,7.7-3,8-6.9c16.6-24.7,33.3-49.4,49.9-74.1c3.9-0.4,7.4-2.1,10-4.7
		c15.2,4.5,38,8.7,55.5,10.1c15.6,1.4,28.6-0.6,37.9-2.9c7.4-3.1,19.6-9.5,31.1-21.6c5-5.4,8.9-11,11.9-16.4c3.1,0.5,6.3,1,9.5,1.5
		c87.5,16.4,109.6,55.6,174.9,44.9c6.7-0.8,12.9-2.3,18.6-4.5l19.1,64.3c-1.6,5.6,0.1,11.6,4.4,15.4c-0.4,21.6,7.9,54,7.6,76
		c-2.1,4.4-0.5,9.7,3.7,12c4.4,2.4,9.9,0.6,12.3-3.9c1.3-2.5,1.5-5.3,0.6-7.7c0.6-18.8-3.7-56-2.4-79.7c0.1-0.2,0.3-0.4,0.4-0.7
		c2.8-4.8,2.7-10.3,0.4-14.8c1.9-24.3,5.8-50,7.1-73.9c4.3-4.8,12.1-16.9,17.8-37.2c2.7-18.1,5.6-33.6,2.6-45.4
		c15.9-27.5,44.3-39.3,63-56.5c5.9,5.4,12.5,9,17.7,10.1c8.7,1.9,15.6,0.6,15.6,0.6c2.2-0.4,6.2-1.5,9.9-2.7
		c3.6-1.2,4.5-1.6,6.8-2.2c4.2-0.9,7.7-0.4,10.2-0.1c5.8,0.9,17.5,2.7,33,5.6c0,0,4.5,1.1,12.8,2.9c1.2,0.3,8.2,2.2,13.5-1.8
		C731.6,152.2,731.1,143.8,731,142.8L731,142.8z M652.4,101.4l-6.5-3.9l3.9-6.4l6.5,3.9L652.4,101.4z M720.6,137.8l-2.7-1.6l1.7-2.7
		l2.7,1.6L720.6,137.8z"/>
	<g id="Horn-5">
		<path id="ej82dvxeu3j187" class="st0" d="M660.6,73.9l-4.8,5.7l0,0c-1.7,2.2,0.5,4.9,3.8,7.3s6.6,3.6,8.2,1.3l0,0l3.8-6.3
			c-2.4,0.3-5-0.3-7-1.9C662.6,78.4,661.1,76.3,660.6,73.9z"/>
		<path id="ej82dvxeu3j188" class="st2" d="M667.1,66.1l-6.6,7.8c0.6,2.4,2,4.5,4,6s4.7,2.1,7,1.9l5.2-8.7c-2.1,0-4.2-0.6-6-1.9
			S667.8,68.1,667.1,66.1z"/>
		<path id="ej82dvxeu3j189" class="st0" d="M698.4,37.5l5.4-9c-0.6-0.3-1.2-0.6-1.8-1c-0.6-0.5-1-0.9-1.5-1.4l-6.8,8.1
			c0.6,0.8,1.3,1.3,2.1,2S697.5,37.2,698.4,37.5z"/>
		<path id="ej82dvxeu3j190" class="st2" d="M704,28.5l13.7-22.6l-17.1,20.4c0.5,0.5,1,0.9,1.5,1.4C702.8,27.9,703.4,28.2,704,28.5
			L704,28.5z"/>
		<path id="ej82dvxeu3j191" class="st3" d="M695.9,36.1c-0.8-0.6-1.5-1.2-2.1-2l-6.8,8.1c0.8,1,1.5,2,2.5,2.7s2.2,1.2,3.5,1.7l5.4-9
			C697.5,37.2,696.8,36.7,695.9,36.1L695.9,36.1z"/>
		<path id="ej82dvxeu3j192" class="st2" d="M687,42.3l-6.8,8c0.8,1.3,1.8,2.5,3,3.5c1.3,0.9,2.7,1.5,4.2,1.8l5.4-9
			c-1.2-0.3-2.2-0.9-3.5-1.7C688.7,44.2,687.8,43.3,687,42.3z"/>
		<path id="ej82dvxeu3j193" class="st3" d="M673.7,58.2l-6.6,8c0.8,1.9,2,3.8,3.8,5.1s4,1.9,6,1.9l5.2-8.8c-1.8-0.2-3.6-0.8-5.1-2
			C675.6,61.3,674.4,59.8,673.7,58.2L673.7,58.2z"/>
		<path id="ej82dvxeu3j194" class="st0" d="M680.4,50.2l-6.6,8c0.8,1.7,2,3.2,3.5,4.2s3.3,1.8,5.1,1.9l5.4-8.8
			c-1.5-0.3-2.8-0.9-4.2-1.8C682.1,52.8,681,51.6,680.4,50.2z"/>
	</g>
	<g id="Tail-5">
		<polygon id="ej82dvxeu3j473-5" class="st2" points="208.9,143.5 173.3,121.2 212.3,105.7 247.8,128 		"/>
		<polygon id="ej82dvxeu3j474-5" class="st3" points="166.5,134.2 140.3,117.9 169.1,106.3 195.1,122.8 		"/>
		<polygon id="ej82dvxeu3j475-5" class="st0" points="125.3,127.7 104.5,114.7 127.2,105.6 148,118.6 		"/>
	</g>
	<g id="Mane-5">
		<polygon id="ej82dvxeu3j477-5" class="st2" points="469.5,75.1 475.2,72.9 477.5,78.6 471.8,80.8 		"/>
		<polygon id="ej82dvxeu3j478-5" class="st3" points="477.2,78.6 485.8,75.1 489.2,83.6 480.7,87.1 		"/>
		<polygon id="ej82dvxeu3j479-5" class="st0" points="488.9,83.8 501.7,78.8 506.9,91.5 494.1,96.7 		"/>
		<polygon id="ej82dvxeu3j480-5" class="st2" points="505.9,91 521.2,84.9 527.5,100.3 512.2,106.4 		"/>
		<polygon id="ej82dvxeu3j481-5" class="st2" points="496.5,63.7 502.2,61.5 504.5,67.2 498.9,69.4 		"/>
		<polygon id="ej82dvxeu3j482-5" class="st3" points="504.2,67.1 512.7,63.6 516.2,72.1 507.6,75.6 		"/>
		<polygon id="ej82dvxeu3j483-5" class="st0" points="515.8,72.5 528.5,67.3 533.8,80.1 521.1,85.2 		"/>
		<polygon id="ej82dvxeu3j484-5" class="st2" points="532.8,79.6 548.1,73.4 554.4,88.9 539.1,95.1 		"/>
		<polygon id="ej82dvxeu3j485-5" class="st2" points="523.4,52.6 528.9,50.4 531.3,56.1 525.6,58.3 		"/>
		<polygon id="ej82dvxeu3j486-5" class="st3" points="531.2,55.9 539.7,52.6 543.2,61.1 534.6,64.6 		"/>
		<polygon id="ej82dvxeu3j487-5" class="st0" points="542.8,61.3 555.4,56.3 560.6,69 547.9,74.2 		"/>
		<polygon id="ej82dvxeu3j488-5" class="st2" points="559.7,68.4 575.1,62.4 581.4,77.8 566,83.9 		"/>
	</g>
</g>
</svg>
