<?xml version="1.0" encoding="utf-8"?>
<!-- Generator: Adobe Illustrator 26.4.1, SVG Export Plug-In . SVG Version: 6.00 Build 0)  -->
<svg version="1.1" id="Layer_2_00000039125743911234898760000013255308463517601194_"
	 xmlns="http://www.w3.org/2000/svg" xmlns:xlink="http://www.w3.org/1999/xlink" x="0px" y="0px" viewBox="0 0 733.4 485"
	 style="enable-background:new 0 0 733.4 485;" xml:space="preserve">
<style type="text/css">
	.st0{fill:#F35890;}
	.st1{fill:#5932C4;}
	.st2{fill:#6F3FF5;}
	.st3{fill:#02E2AC;}
</style>
<g id="_09">
	<path id="Hooves-4" class="st0" d="M99.5,377.1l-19.2,25.4L75,370.8c7.2-0.5,10.7,1.8,11.6-0.1c0.6-1.4,0.6-2.7,1.8-4
		c0.9-0.9,1.8-1.5,2.8-1.8c1.8-0.5,3.8,0.6,4.1,2.4C96,371.1,98.9,373.2,99.5,377.1L99.5,377.1z M295.7,409.8
		c1.4-3.6-1.6-7.6-5.4-6.9c-0.3,0-0.6,0.1-0.9,0.1c-2,0.6-2.7,1.8-4,2.5c-2.1,1.2-1.5,0.3-9.5-3.6c-2.9,7.5-9.3,23.4-12.1,30.9
		c9.9-2.2,18.6-11.5,28.5-13.8C293.4,416.1,294.5,413,295.7,409.8L295.7,409.8z M398.1,457.5c-0.5,1.2-0.9,3.1-0.1,4.8
		s2.4,2.1,3.6,3c1.6,1.4-2.5,4.4-3.8,11.5c6.6,0,25.4-0.3,32.1-0.5c-3.6-7-15.1-18.5-18-26.1C407.1,451.2,402.9,456.8,398.1,457.5
		L398.1,457.5z M149.3,364.5c-2.2-0.5-5.4-0.6-7.5,1c-1.6,1.4-1.8,2.9-2.9,4.4c-1.5,2-1.2,0.1-8.9-0.6c-0.4,9.3,1.6,36.8,1.6,36.8
		l21.6-28.6C153.2,377.6,149.1,370.2,149.3,364.5L149.3,364.5z"/>
	<path id="BodyB-4" class="st1" d="M171.1,263.1c-0.3,0.4-0.7,0.8-1,1.2c-12.8,31-8.3,79.3-12.7,108.5c-0.3,1.7-1.4,3-2.8,3.6
		c-1.6,1.5-3.6,2.4-5.9,2.4c-4.8,0-8.7-3.9-8.7-8.7c0-1.8,0.6-3.5,1.6-5c5.3-34.7-0.2-75.7,4.8-110.6c0,0,0-0.1,0-0.1
		c0-6.1,3.9-11.2,9.3-13.1c18.7-10.1,15.6-9.9,36-20.9c8.1-6.4,18.4-16.4,28.4-30.3c5.1-7.2,9-14.2,12.3-20.9
		c3.6-15.9,15.3-29.6,32-34.8c24.8-7.7,51.1,6.1,58.8,30.9s-6.1,51.1-30.9,58.8c-0.5,0.1-0.8,0.1-1.2,0.3
		c-19.6,12.3-91.6,31.4-96.6,32.2C183.6,258.8,176.2,261.1,171.1,263.1L171.1,263.1z M465,261.2c-2.4-2.7-1.2-29.7-3.9-32.1
		c-27.1-22.9-14,26.1-18.6,28.5c-4,2.1-11.1,3.8-24.1,12.8c-15.2,10.3-25.1,46.2-38.1,78.9c-1.5,0.9-2.8,2-3.9,3.4
		c-23.7,12.2-61.1,38.9-83.6,50.3c0,0.2,0.1,0.4,0.1,0.5c-3.9,0-7.7,2.4-9.4,6.4c-2.2,5.3,0.1,11.3,5.1,13.4s10.9-0.4,13.1-5.7
		c0.1-0.2,0.1-0.3,0.2-0.5c25.2-9.9,62.7-32.2,88.2-41.5c0.5-0.1,1-0.2,1.5-0.4c6-1.9,9.8-7.7,9.5-13.9c15-12.3,34.8-36.7,42.9-45.5
		c6.6,5.9,19.5-9.6,19.5-9.8C464.4,301.8,488.3,288.6,465,261.2L465,261.2z"/>
	<path id="BodyF-4" class="st2" d="M706.1,144.9c-1.2-13.4-18.5-18.2-42.8-35.6c-12.5-8.8-21.6-17.2-27-22.3
		c-2.4-2.2-6.3-5.2-11.5-7.7c-5.8-2.6-11-3.4-14.6-3.7l-24.6-18.4l6.3,15.2L572.7,59l9.4,20.1c-44.6-5-114.7,51.5-167.3,63.7
		c0,0,0,0,0,0c-0.9,0.2-1.8,0.4-2.7,0.6c0,0,0,0,0,0c-117.7,25.8-87.2-40.4-185.4-20.3c-25.9,5.4-44.2,33.3-46.4,50.8
		c-5.1,24-3.1,40.6,4.8,52.6c3.1,4.8,2.6,11.2-1.3,15.5c-13.5,14.7-33.7,11.4-51.6,13.1c-0.5,0-1,0-1.4,0.1c-0.5,0.1-1,0.1-1.4,0.2
		c-0.2,0-0.3,0-0.5,0.1c-0.2,0-0.5,0.1-0.9,0.3c-4.9,1.4-8.9,5-10.8,9.6c-0.3,0.4-0.6,1-0.8,1.5c-9.3,33.2-18.5,66.4-27.7,99.6
		c-1.4,1.6-2.1,3.9-1.7,6.1c0.7,4.1,4.8,6.8,9.2,6c4.1-0.7,6.9-4.3,6.6-8.2c11.6-27.5,23.2-55,34.9-82.5c3.7-1.1,6.8-3.5,8.9-6.6
		c15.7,1.5,38.9,1.2,56.3-0.6c15.4-1.6,28.1-6.1,36.8-10c3.7-2.4,8.7-6.1,13.9-11.4h0c83.3,20.2,103.9,59.8,165.4,54.1l-2,44.3
		c-3.2,4.7-3.6,10.8-0.9,15.7c-7.1,19.9-9.9,51.7-16.7,72.2c-1.6,0.9-3,2.2-3.9,4c-2.4,4.6-0.7,10.1,3.7,12.4
		c3.4,1.8,7.4,1.1,10.2-1.4c1.1-0.2,2.1-0.8,2.6-1.9c7.1-13.9,15.9-56,25.7-80.8c0.4-0.2,0.7-0.5,1-0.8c4.3-3.6,6-9.2,5.1-14.2
		c9.6-22.3,21.7-45.1,30.9-67.4c5.5-3.1,17.6-5,30.5-24.8c11.8-23.2,10.4-44.9,7.6-59.1c15.9-30.1,47.9-43.2,68.1-62.4
		c6.4,5.8,13.5,9.5,19.1,10.6c8.8,1.6,15.6,0.1,15.6,0.1c2.2-0.6,6.2-1.6,9.9-3c3.6-1.4,4.3-1.8,6.6-2.4c4.2-1.1,7.7-0.8,10-0.4
		c5.8,0.6,17.7,2.1,33.2,4.5c0,0,4.5,0.9,12.9,2.4c1.2,0.3,8.2,1.9,13.3-2.2C707,154.4,706.2,146,706.1,144.9L706.1,144.9z
		 M626.4,105.8l-6.6-3.8l3.8-6.6l6.6,3.8L626.4,105.8z M695.9,140l-2.8-1.6l1.7-2.9l2.8,1.6L695.9,140z"/>
	<g id="Horn-4">
		<path id="ej82dvxeu3j148" class="st0" d="M633.8,78l-4.5,5.8l0,0c-1.5,2.2,0.6,4.9,4,7.2s6.8,3.3,8.2,1.1l0,0l3.6-6.4
			c-2.4,0.3-5-0.2-7-1.7C635.9,82.5,634.4,80.4,633.8,78z"/>
		<path id="ej82dvxeu3j149" class="st2" d="M640.1,70.1l-6.3,7.9c0.6,2.2,2.1,4.5,4.3,5.8c2.2,1.5,4.8,1.9,7,1.7l5-8.8
			c-2.1,0-4.2-0.4-6.2-1.8C642,73.8,640.7,72,640.1,70.1L640.1,70.1z"/>
		<path id="ej82dvxeu3j150" class="st0" d="M670.4,40.4l5.1-9.3c-0.6-0.3-1.2-0.6-1.8-0.9c-0.6-0.5-1-0.8-1.7-1.4l-6.6,8.4
			c0.6,0.8,1.3,1.3,2.1,2C668.6,39.8,669.5,40.2,670.4,40.4L670.4,40.4z"/>
		<path id="ej82dvxeu3j151" class="st2" d="M675.6,31.2l12.9-23.1L672.2,29c0.5,0.5,1,0.9,1.7,1.4C674.4,30.6,675,30.9,675.6,31.2
			L675.6,31.2z"/>
		<path id="ej82dvxeu3j152" class="st3" d="M667.8,39.2c-0.9-0.6-1.5-1.2-2.1-2l-6.5,8.2c0.8,1,1.7,1.8,2.7,2.5s2.2,1.2,3.5,1.5
			l5.1-9.2C669.5,40.2,668.6,39.8,667.8,39.2z"/>
		<path id="ej82dvxeu3j153" class="st2" d="M659.1,45.6l-6.5,8.2c0.8,1.3,1.8,2.4,3.2,3.3c1.3,0.9,2.8,1.3,4.3,1.7l5.1-9.2
			c-1.2-0.3-2.4-0.8-3.5-1.5S659.9,46.5,659.1,45.6L659.1,45.6z"/>
		<path id="ej82dvxeu3j154" class="st3" d="M646.4,62l-6.3,8.1c0.8,1.9,2.1,3.8,4,4.9s4,1.8,6.2,1.8l5-9c-1.8-0.2-3.6-0.6-5.2-1.8
			C648.3,65,647.1,63.6,646.4,62L646.4,62z"/>
		<path id="ej82dvxeu3j155" class="st0" d="M652.7,53.9l-6.5,8.1c0.8,1.7,2,3,3.6,4.1c1.7,1.1,3.5,1.7,5.2,1.8l5.1-9
			c-1.5-0.2-3-0.8-4.3-1.7C654.6,56.3,653.6,55.1,652.7,53.9L652.7,53.9z"/>
	</g>
	<g id="Tail-4">
		<polygon id="ej82dvxeu3j473-4" class="st2" points="191.1,150.6 155.5,128.3 194.5,112.8 230,135.1 		"/>
		<polygon id="ej82dvxeu3j474-4" class="st3" points="148.8,141.3 122.5,125 151.3,113.4 177.4,129.9 		"/>
		<polygon id="ej82dvxeu3j475-4" class="st0" points="107.5,134.8 86.7,121.8 109.5,112.8 130.2,125.8 		"/>
	</g>
	<g id="Mane-4">
		<polygon id="ej82dvxeu3j477-4" class="st2" points="436.7,85.7 442.3,83.3 444.9,89 439.2,91.4 		"/>
		<polygon id="ej82dvxeu3j478-4" class="st3" points="444.6,89 453,85.3 456.7,93.7 448.3,97.4 		"/>
		<polygon id="ej82dvxeu3j479-4" class="st0" points="456.3,93.9 469,88.6 474.5,101.1 462,106.6 		"/>
		<polygon id="ej82dvxeu3j480-4" class="st2" points="473.6,100.6 488.6,94.2 495.4,109.3 480.3,115.9 		"/>
		<polygon id="ej82dvxeu3j481-4" class="st2" points="463.5,73.6 469.1,71.2 471.5,76.8 466,79.2 		"/>
		<polygon id="ej82dvxeu3j482-4" class="st3" points="471.2,76.8 479.6,73.1 483.3,81.5 474.9,85.2 		"/>
		<polygon id="ej82dvxeu3j483-4" class="st0" points="482.9,81.8 495.5,76.3 501.1,88.9 488.6,94.4 		"/>
		<polygon id="ej82dvxeu3j484-4" class="st2" points="500.1,88.6 515.3,81.9 522,97.2 506.9,103.8 		"/>
		<polygon id="ej82dvxeu3j485-4" class="st2" points="490,61.8 495.5,59.4 498,65.1 492.4,67.4 		"/>
		<polygon id="ej82dvxeu3j486-4" class="st3" points="497.9,64.9 506.3,61.3 510,69.8 501.6,73.5 		"/>
		<polygon id="ej82dvxeu3j487-4" class="st0" points="509.6,70 522.2,64.6 527.7,77.2 515.1,82.7 		"/>
		<polygon id="ej82dvxeu3j488-4" class="st2" points="526.7,76.6 541.9,70.2 548.7,85.4 533.4,91.9 		"/>
	</g>
</g>
</svg>
