<?xml version="1.0" encoding="utf-8"?>
<!-- Generator: Adobe Illustrator 26.4.1, SVG Export Plug-In . SVG Version: 6.00 Build 0)  -->
<svg version="1.1" id="Layer_2_00000137855043904598356250000012808806772684083866_"
	 xmlns="http://www.w3.org/2000/svg" xmlns:xlink="http://www.w3.org/1999/xlink" x="0px" y="0px" viewBox="0 0 733.4 485"
	 style="enable-background:new 0 0 733.4 485;" xml:space="preserve">
<style type="text/css">
	.st0{fill:#F35890;}
	.st1{fill:#5932C4;}
	.st2{fill:#6F3FF5;}
	.st3{fill:#02E2AC;}
</style>
<g id="_10">
	<path id="Hooves-3" class="st0" d="M123.1,376L110,405.1l-12.3-29.5c6.9-2.1,10.8-0.6,11.2-2.7c0.4-1.5,0-2.7,0.9-4.4
		c0.6-1,1.5-1.8,2.4-2.4c1.5-1,3.6-0.3,4.3,1.4C118.1,371.1,121.4,372.4,123.1,376z M295.1,397.5c2.2-3.1,0.5-7.8-3.5-8.1h-0.9
		c-2.1,0-3.1,1-4.6,1.4c-2.4,0.6-1.5-0.1-8.2-5.9c-4.8,6.6-15,20.2-19.6,26.7c10,0.3,21-6.3,31-6C291.2,403,293.2,400.2,295.1,397.5
		z M316.6,446.8c-0.9,1-2,2.7-1.8,4.5s1.5,2.9,2.4,4c1,1.8-3.9,3.1-7.5,9.6c6.3,2.2,24,8.4,30.3,10.5c-1-8-8-22.6-8-30.6
		C327.2,444,321.4,447.9,316.6,446.8L316.6,446.8z M190.1,345.6c-2.2,0.6-5.1,1.8-6.3,4.2c-0.9,2-0.3,3.5-0.6,5.2
		c-0.4,2.4-1.1,0.6-8.2,3.5c3.6,8.7,17.7,32.2,17.7,32.2l6.8-35.2C199.4,355.5,192.5,350.8,190.1,345.6L190.1,345.6z"/>
	<g id="BodyB-3">
		<path class="st1" d="M165.2,249.8c4.9-1.8,11.7-3.8,20.9-5.6c4.9-0.9,76.9-19.9,96.6-32.2c0.5-0.1,0.8-0.1,1.2-0.3
			c24.8-7.6,33.3-3.3,25.5-28.1s-35-27.6-59.7-19.9c-16.6,5.2-22.1-22.6-25.6-6.8c-3.3,6.6-7.2,13.6-12.3,20.9
			c-9.9,13.9-20.2,23.9-28.4,30.3c-20.1,10.8-18.4,11-36.4,20.7c-5.3,2-9.1,7.1-9.1,13.1c0,0.8,0.1,1.6,0.2,2.4c0,0-0.1,0-0.1,0
			c0.1,0.2,0.1,0.4,0.2,0.5c0.2,0.8,0.4,1.6,0.7,2.3c10.7,33.8,34,68.7,44.5,102.5c-0.1,0.4-0.1,0.9-0.1,1.3c0,4.8,3.9,8.7,8.7,8.7
			c3.7,0,6.8-2.3,8.1-5.5c1-1.2,1.4-2.9,0.8-4.7C192.5,322.3,168.8,282.5,165.2,249.8L165.2,249.8z"/>
		<path class="st1" d="M451.4,261c-2.9-2.1-7.4-28.9-10.5-30.6c-31.4-16.8-8.2,28.4-12.3,31.6c-3.5,2.9-9.9,5.9-20.9,17.4
			c-12.3,13-14.6,48.5-20.3,82.5c-1.3,0.5-2.5,1.2-3.5,2.1c-26.3,6.2-66.4,21.2-89.8,26.1c0,0.2,0,0.3,0,0.5
			c-3.8-0.9-8,0.4-10.6,3.8c-3.5,4.5-2.8,10.9,1.5,14.2s10.7,2.4,14.2-2.1c0.1-0.1,0.2-0.3,0.3-0.4c25.7-3,65.3-13.9,92-16.8
			c0.7,0.1,1.4,0.1,2.1,0.1c7.1-0.4,12.7-6.3,13-13.5c12.8-13.5,29.4-46.2,35.8-57.2c7.8,4.5,17.1-13.2,17.1-13.5
			C459.2,300.9,479.8,283,451.4,261L451.4,261z"/>
	</g>
	<path id="BodyF-3" class="st2" d="M643,107.1c-11.4-10.3-19.3-19.7-24-25.5c-2.1-2.6-5.5-6-10.5-9c-5.5-3.4-10.8-4.8-14.2-5.6
		l-0.4,0l-21.6-19.2l4.4,14.6L559.1,48l7.9,22.7c-1.4,0.8-3.3,2-5.5,3.7c-44.7,3-107.9,57-157.2,71.2
		c-119.7,26-95.3-46.1-194.3-25.9c-26.1,5.4-46.2,35.6-48.3,53.1c-4.9,22.8-2,39.4,6.5,52c5.9,8.7,0.5,20.7-9.9,22.2
		s-22.6,0.8-32.7,2.2c-0.7,0.1-1.4,0.4-1.8,0.9c-6.4,2.8-9.6,9.8-9,16.9c-1.6,33.7-3.1,67.5-4.5,101.2c-1.1,2-1.3,4.4-0.4,6.5
		c1.6,3.8,6.2,5.5,10.3,3.8c3.8-1.6,5.8-5.8,4.6-9.5c5.1-29.4,10.3-58.7,15.5-88.1c2.5-1.4,4.5-3.5,5.9-5.9
		c15.7,1.5,38.9,1.3,56.3-0.6c15.4-1.6,28.1-6.1,36.8-10c0.9-0.6,1.8-1.3,2.8-2l2.3-0.5c72,17.4,97.3,49.1,142.3,54l-18.1,43.6
		c-4.7,3.3-7.2,9-6.2,14.6c-13.5,16-27,45-40.5,62.1c-1.8,0.3-3.5,1.1-5,2.4c-3.8,3.5-4.1,9.3-0.8,12.9c2.5,2.8,6.5,3.5,9.9,2.2
		c1.1,0.3,2.4,0,3.3-0.8c11.6-10.8,34.5-47.8,52.2-67.5c0.3-0.1,0.5-0.2,0.8-0.3c5.1-2,8.6-6.3,9.6-11.2c16.7-17.7,36-35.3,52.2-53
		c6.5-1,34.5-22.2,38-28.2c7-12,15.1-41.7,17.2-55.9c0-0.4,0.1-0.7,0.1-1c0.1-0.3,0.1-0.6,0.2-0.9c5.7-47.1,45.3-64.1,69.1-87.9
		c1.9,1.1,3.8,2,5.5,2.5c8.5,2.7,15.6,1.9,15.6,1.9c2.4-0.3,6.3-0.9,10.2-1.8c3.8-0.9,4.7-1.4,6.9-1.6c4.3-0.4,7.8,0.3,10,0.8
		c5.7,1.4,17.2,4.2,32.4,8.6c0,0,4.3,1.4,12.5,3.9c1.2,0.4,8,3,13.5-0.6c6.2-3.9,6.3-12.3,6.3-13.4C681.5,134.1,665,127.3,643,107.1
		L643,107.1z M606.8,99.1l-6.2-4.5l4.5-6.2l6.2,4.5L606.8,99.1z M671.6,141.4l-2.5-1.9l2-2.6l2.5,1.9L671.6,141.4z"/>
	<g id="Horn-3">
		<path id="ej82dvxeu3j109" class="st0" d="M617.5,72.4l-5.2,5.2l0,0c-1.8,2.1,0,4.9,3.2,7.7c3.2,2.7,6.3,4.2,8.1,2.1l0,0l4.3-6
			c-2.4,0-4.8-0.8-6.9-2.6C618.8,77.1,617.8,74.8,617.5,72.4L617.5,72.4z"/>
		<path id="ej82dvxeu3j110" class="st2" d="M624.7,65.2l-7.2,7.2c0.3,2.4,1.5,4.7,3.6,6.4c2.1,1.8,4.5,2.6,6.9,2.6l6-8.2
			c-2.1-0.2-4.2-1.1-5.8-2.4C626.2,69.3,625.1,67.3,624.7,65.2z"/>
		<path id="ej82dvxeu3j111" class="st0" d="M658.4,39.6l6.3-8.5c-0.6-0.3-1.2-0.8-1.7-1.2s-1-0.9-1.5-1.5l-7.5,7.5
			c0.6,0.8,1.2,1.5,2,2.1C656.6,38.7,657.5,39.1,658.4,39.6z"/>
		<path id="ej82dvxeu3j112" class="st2" d="M664.6,31l15.6-21.5l-18.8,18.8c0.5,0.6,0.9,1,1.5,1.5S664,30.7,664.6,31z"/>
		<path id="ej82dvxeu3j113" class="st3" d="M655.9,38.1c-0.8-0.6-1.3-1.3-2-2.1l-7.5,7.5c0.6,1,1.3,2.1,2.4,2.8c1,0.9,2.1,1.5,3.2,2
			l6.2-8.5C657.5,39.1,656.6,38.7,655.9,38.1L655.9,38.1z"/>
		<path id="ej82dvxeu3j114" class="st2" d="M646.6,43.3l-7.3,7.3c0.6,1.3,1.5,2.7,2.7,3.6c1.2,1,2.5,1.8,4,2.1l6.2-8.4
			c-1.2-0.5-2.2-1-3.2-2C647.9,45.3,647.2,44.4,646.6,43.3z"/>
		<path id="ej82dvxeu3j115" class="st3" d="M631.9,58l-7.2,7.2c0.5,1.9,1.7,3.9,3.3,5.4c1.8,1.5,3.8,2.2,5.8,2.4l6-8.2
			c-1.8-0.3-3.5-1-5-2.4C633.5,61.3,632.5,59.7,631.9,58L631.9,58z"/>
		<path id="ej82dvxeu3j116" class="st0" d="M639.2,50.7l-7.3,7.3c0.6,1.7,1.7,3.3,3.2,4.5s3.2,2.1,5,2.4l6.2-8.4
			c-1.5-0.5-2.8-1-4-2.1C640.7,53.2,639.8,52,639.2,50.7L639.2,50.7z"/>
	</g>
	<g id="Tail-3">
		<polygon id="ej82dvxeu3j473-3" class="st2" points="179.7,139.4 144.2,117.2 183.1,101.7 218.6,124 		"/>
		<polygon id="ej82dvxeu3j474-3" class="st3" points="137.4,130.1 111.2,113.8 139.9,102.3 166,118.7 		"/>
		<polygon id="ej82dvxeu3j475-3" class="st0" points="96.1,123.6 75.3,110.6 98.1,101.6 118.8,114.6 		"/>
	</g>
	<g id="Mane-3">
		<polygon id="ej82dvxeu3j477-3" class="st2" points="414.5,93.5 420,90.7 422.9,96.2 417.5,99 		"/>
		<polygon id="ej82dvxeu3j478-3" class="st3" points="422.6,96.2 430.8,91.9 435.1,100 426.9,104.3 		"/>
		<polygon id="ej82dvxeu3j479-3" class="st0" points="434.7,100.2 447,94 453.4,106.2 441.2,112.6 		"/>
		<polygon id="ej82dvxeu3j480-3" class="st2" points="452.4,105.7 467,98.2 474.8,112.9 460.1,120.5 		"/>
		<polygon id="ej82dvxeu3j481-3" class="st2" points="440.4,79.4 445.9,76.7 448.6,82.2 443.3,84.9 		"/>
		<polygon id="ej82dvxeu3j482-3" class="st3" points="448.3,82.1 456.5,77.8 460.8,85.9 452.6,90.2 		"/>
		<polygon id="ej82dvxeu3j483-3" class="st0" points="460.4,86.3 472.5,80 479,92.1 466.9,98.5 		"/>
		<polygon id="ej82dvxeu3j484-3" class="st2" points="478,91.8 492.7,84.2 500.4,99 485.8,106.6 		"/>
		<polygon id="ej82dvxeu3j485-3" class="st2" points="466,65.8 471.3,63.1 474.2,68.6 468.8,71.3 		"/>
		<polygon id="ej82dvxeu3j486-3" class="st3" points="474.1,68.4 482.2,64.2 486.5,72.4 478.4,76.7 		"/>
		<polygon id="ej82dvxeu3j487-3" class="st0" points="486.2,72.6 498.3,66.4 504.7,78.5 492.5,84.9 		"/>
		<polygon id="ej82dvxeu3j488-3" class="st2" points="503.7,78.1 518.4,70.6 526.2,85.2 511.5,92.8 		"/>
	</g>
</g>
</svg>
