<?xml version="1.0" encoding="utf-8"?>
<!-- Generator: Adobe Illustrator 26.4.1, SVG Export Plug-In . SVG Version: 6.00 Build 0)  -->
<svg version="1.1" id="Layer_2_00000150063918503046293780000015105212370765383564_"
	 xmlns="http://www.w3.org/2000/svg" xmlns:xlink="http://www.w3.org/1999/xlink" x="0px" y="0px" viewBox="0 0 733.4 485"
	 style="enable-background:new 0 0 733.4 485;" xml:space="preserve">
<style type="text/css">
	.st0{fill:#F35890;}
	.st1{fill:#5932C4;}
	.st2{fill:#6F3FF5;}
	.st3{fill:#02E2AC;}
</style>
<g id="_11">
	<path id="Hooves-2" class="st0" d="M174.4,394.6l4.9,31.5L153,407.9c4.6-5.5,8.7-6.3,7.9-8.4c-0.6-1.4-1.5-2.2-1.6-4
		c-0.1-1.2,0.1-2.2,0.6-3.3c0.9-1.6,3-2.2,4.5-1.2C167.7,393.2,171.1,392.5,174.4,394.6L174.4,394.6z M356.2,434.5
		c0.9-3.8-2.4-7.4-6.1-6.3c-0.3,0.1-0.6,0.1-0.9,0.3c-2,0.8-2.5,2.1-3.8,3c-2,1.4-1.5,0.5-9.8-2.5c-2.1,7.8-6.8,24.3-8.9,32.1
		c9.6-3.3,17.4-13.4,26.9-16.6C354.4,440.9,355.3,437.8,356.2,434.5L356.2,434.5z M289.5,443.6c-0.9-1-2.2-2.4-4-2.7
		c-1.8-0.1-3,0.9-4.5,1.5c-2,0.8-2.2-4.5-7.8-9.3c-3.5,5.7-13.2,21.8-16.6,27.5c8,0.6,23.7-3,31.6-1.5
		C290.1,454.6,287.5,448,289.5,443.6L289.5,443.6z M232.8,380.8c-1.8,1.5-4.1,3.6-4.2,6.3c-0.1,2.1,1.1,3.3,1.4,5.1
		c0.4,2.4-0.8,0.9-6.3,6.3c6.8,6.6,28.8,22.8,28.8,22.8l-7.5-35.1C245.1,386.3,237,384.7,232.8,380.8L232.8,380.8z"/>
	<path id="BodyB-2" class="st1" d="M279.3,185c16.8,19.8,7.4,19.1-12.5,35.9c-0.5,0.1-0.8,0.4-1,0.8c-13.4,19.2-72.1,64.6-76.4,67.5
		c-7.9,5.4-13.5,9.8-17.3,13.5c16,28.8,53.5,56.1,71.9,77.8c1.2,1.2,1.5,2.8,1.2,4.2c0,0.1,0,0.3,0,0.5c0,4.8-3.9,8.7-8.7,8.7
		c-4,0-7.4-2.7-8.4-6.4c-23.6-27.8-60-51.3-83.1-79.3c0.1,0,0.2,0,0.3,0c-1.5-2.2-2.4-4.9-2.4-7.8c0-0.6,0.1-1.2,0.1-1.8
		c-0.4-0.4-0.7-0.8-1-1.2c0.7-0.9,1.4-1.8,2.1-2.7c0.9-2.1,2.3-3.9,4.1-5.2c9.4-12.3,11.9-16.8,24.6-32.6c4.9-9.1,10.6-22.4,14.2-39
		c1.8-8.6,2.7-16.6,3.1-24c-3-16.1,12.9,7.5,26.2-3.8C236.2,173.3,262.5,165.2,279.3,185L279.3,185z M493.8,204.5
		c-3.7-43.9-57.8,21.9-61.4,21.5c-35.2-4.5,2.4,29.4-0.1,33.9c-2.1,4-7,9.1-13.2,23.9c-7,16.8,4.1,51.5,10.9,85.8
		c-22.4,14.5-56.5,44.8-77.5,58.4c0.1,0.2,0.1,0.4,0.2,0.6c-3.9,0.5-7.4,3.3-8.6,7.4c-1.6,5.5,1.2,11.2,6.5,12.8
		c5.2,1.6,10.8-1.6,12.5-7c0.1-0.2,0.1-0.4,0.2-0.6c24-12.5,58.9-38.5,83.1-50.2c0.6-0.2,1.2-0.4,1.7-0.6c6.9-3.1,10-11.5,6.8-18.8
		c-0.2-0.4-0.4-0.7-0.5-1c6.6-17.5,11.9-46.4,13.8-57.9c3.4-11.6,7.6-15.3,12.5-25.5C486.6,274.7,501.8,252.1,493.8,204.5
		L493.8,204.5z"/>
	<path id="BodyF-2" class="st2" d="M604,119.9c-11.4-10.3-19.3-19.7-24-25.5c-2.1-2.6-5.5-6-10.5-9c-5.1-3.2-9.9-4.6-13.3-5.3
		l-17-20.6l0.5,15.3l-13.6-15l2,23.7c-2.5,1.4-7.1,4.4-11.5,9.1c-39,9.6-87.8,53.6-130.5,74.5c-118.7,27.5-94-45.5-190.9-24.9
		c-25.5,5.4-46.9,38.6-49.1,55.9c-5.2,24.6-1.4,41.5,8.8,53.7c5.6,6.8,3.1,17.2-5,20.7c-11.6,5-25.3,6.4-36.4,10.2
		c-0.9,0.3-1.6,1-2,1.8c-1.1,0.9-2.1,1.8-3,3c-3.7,4.8-4.4,11-2.4,16.2c0,0.8,0.2,1.5,0.6,2.2c17.5,29.7,35,59.5,52.5,89.2
		c0.2,2.2,1.3,4.2,3.2,5.5c3.4,2.3,8.2,1.2,10.7-2.4c2.3-3.5,1.7-8-1.3-10.4c-11.7-27.4-23.4-54.9-35.1-82.4
		c0.2-0.4,0.4-0.9,0.6-1.3c15.7-1.5,39.2-6.2,56.4-11.4c9.8-3.1,18.1-7,24.8-10.9c3.2,0.8,6.5,1.5,9.8,2.2
		c72.8,18,96.4,51.5,143.9,54l-15.2,51.2c-2.3,2.1-3.9,4.8-4.5,7.9c-18.6,10.4-41.8,32.9-60.7,43.9c-2.3-0.6-4.7-0.4-6.9,0.9
		c-4.3,2.5-5.6,8.2-3,12.6c2,3.4,5.8,5.1,9.3,4.5c0.6,0.1,1.3,0.1,2-0.2c14.7-5.9,49.2-32.2,72.9-44.3c0.3,0,0.7,0,1,0
		c8.3,0,15-6.3,15.1-14.2c14.5-19.1,31.6-38.1,45.8-57.2c6.3-1.6,32-25.6,34.8-32c5.7-12.6,10.6-43,11.2-57.4
		c0.1-2.4-0.1-4.2-0.5-5.7c5.7-42.5,41.5-61.6,62.4-85.8c8.1,2.4,14.7,1.7,14.7,1.7c2.4-0.3,6.3-0.9,10.2-1.8
		c3.8-0.9,4.7-1.4,6.9-1.6c4.3-0.4,7.8,0.3,10,0.8c5.7,1.4,17.2,4.2,32.4,8.6c0,0,4.3,1.4,12.5,3.9c1.2,0.4,8,3,13.5-0.6
		c6.2-3.9,6.3-12.3,6.3-13.4C642.6,146.9,626.1,140,604,119.9L604,119.9z M567.9,112l-6.2-4.5l4.5-6.2l6.2,4.5L567.9,112z
		 M632.7,154.1l-2.5-1.9l2-2.6l2.5,1.9L632.7,154.1z"/>
	<g id="Horn-2">
		<path id="ej82dvxeu3j70" class="st0" d="M578.5,85.3l-5.2,5.2l0,0c-1.8,2.1,0,4.9,3.2,7.7s6.3,4.2,8.1,2.1l0,0l4.3-6
			c-2.4,0-4.8-0.8-6.9-2.6C580,89.9,578.8,87.7,578.5,85.3L578.5,85.3z"/>
		<path id="ej82dvxeu3j71" class="st2" d="M585.7,78.1l-7.2,7.2c0.3,2.4,1.5,4.7,3.6,6.4c2,1.7,4.5,2.6,6.9,2.6l6-8.2
			c-2.1-0.2-4.2-1.1-5.8-2.4C587.4,82,586.2,80,585.7,78.1z"/>
		<path id="ej82dvxeu3j72" class="st0" d="M619.5,52.3l6.3-8.5c-0.6-0.3-1.2-0.8-1.7-1.2s-1-0.9-1.5-1.5l-7.5,7.5
			c0.6,0.8,1.2,1.5,2,2.1C617.8,51.4,618.6,52,619.5,52.3z"/>
		<path id="ej82dvxeu3j73" class="st2" d="M625.6,43.7l15.6-21.5L622.5,41c0.5,0.6,0.9,1,1.5,1.5S625.2,43.4,625.6,43.7z"/>
		<path id="ej82dvxeu3j74" class="st3" d="M617.1,50.8c-0.8-0.6-1.3-1.3-2-2.1l-7.5,7.5c0.6,1,1.3,2.1,2.4,2.8s2.1,1.5,3.2,2
			l6.2-8.5C618.6,52,617.8,51.4,617.1,50.8L617.1,50.8z"/>
		<path id="ej82dvxeu3j75" class="st2" d="M607.6,56l-7.3,7.3c0.6,1.3,1.5,2.7,2.7,3.6c1.2,1.1,2.5,1.8,4,2.1l6.2-8.4
			c-1.2-0.5-2.2-1-3.2-2S608.2,57.1,607.6,56z"/>
		<path id="ej82dvxeu3j76" class="st3" d="M592.9,70.7l-7.2,7.2c0.5,1.9,1.7,3.9,3.3,5.4c1.8,1.5,3.8,2.2,5.8,2.4l6-8.2
			c-1.8-0.3-3.5-1.1-5-2.4S593.5,72.5,592.9,70.7L592.9,70.7z"/>
		<path id="ej82dvxeu3j77" class="st0" d="M600.3,63.5l-7.3,7.3c0.6,1.7,1.7,3.3,3.2,4.5s3.2,2.1,5,2.4l6.2-8.4
			c-1.5-0.4-2.8-1.1-4-2.1C601.8,66.1,600.9,64.9,600.3,63.5L600.3,63.5z"/>
	</g>
	<g id="Tail-2">
		<polygon id="ej82dvxeu3j473-2" class="st2" points="166.1,164.4 130.5,142.1 169.5,126.6 205,148.9 		"/>
		<polygon id="ej82dvxeu3j474-2" class="st3" points="123.8,155.1 97.5,138.8 126.3,127.2 152.4,143.7 		"/>
		<polygon id="ej82dvxeu3j475-2" class="st0" points="82.5,148.6 61.7,135.6 84.5,126.5 105.2,139.6 		"/>
	</g>
	<g id="Mane-2">
		<polygon id="ej82dvxeu3j477-2" class="st2" points="390.6,111.5 395.9,108.5 399.1,113.8 393.8,116.9 		"/>
		<polygon id="ej82dvxeu3j478-2" class="st3" points="398.8,113.8 406.7,109.1 411.4,117 403.5,121.7 		"/>
		<polygon id="ej82dvxeu3j479-2" class="st0" points="411.1,117.3 423,110.5 430,122.3 418.2,129.2 		"/>
		<polygon id="ej82dvxeu3j480-2" class="st2" points="429,121.8 443.2,113.6 451.8,127.8 437.5,136.2 		"/>
		<polygon id="ej82dvxeu3j481-2" class="st2" points="415.7,96.2 421,93.2 424.1,98.5 418.9,101.6 		"/>
		<polygon id="ej82dvxeu3j482-2" class="st3" points="423.8,98.5 431.7,93.8 436.4,101.7 428.5,106.4 		"/>
		<polygon id="ej82dvxeu3j483-2" class="st0" points="436,102.1 447.8,95.1 455,106.9 443.2,113.9 		"/>
		<polygon id="ej82dvxeu3j484-2" class="st2" points="454,106.7 468.2,98.3 476.7,112.7 462.5,121 		"/>
		<polygon id="ej82dvxeu3j485-2" class="st2" points="440.6,81.3 445.8,78.3 449,83.6 443.6,86.6 		"/>
		<polygon id="ej82dvxeu3j486-2" class="st3" points="448.8,83.4 456.7,78.9 461.4,86.8 453.5,91.5 		"/>
		<polygon id="ej82dvxeu3j487-2" class="st0" points="461.1,87.1 472.9,80.2 479.9,92 468.1,99 		"/>
		<polygon id="ej82dvxeu3j488-2" class="st2" points="478.9,91.6 493.2,83.4 501.7,97.6 487.4,106 		"/>
	</g>
</g>
</svg>
