<?xml version="1.0" encoding="utf-8"?>
<!-- Generator: Adobe Illustrator 26.4.1, SVG Export Plug-In . SVG Version: 6.00 Build 0)  -->
<svg version="1.1" id="Layer_2_00000041999724921648329040000017177622970085764744_"
	 xmlns="http://www.w3.org/2000/svg" xmlns:xlink="http://www.w3.org/1999/xlink" x="0px" y="0px" viewBox="0 0 733.4 485"
	 style="enable-background:new 0 0 733.4 485;" xml:space="preserve">
<style type="text/css">
	.st0{fill:#F35890;}
	.st1{fill:#5932C4;}
	.st2{fill:#6F3FF5;}
	.st3{fill:#02E2AC;}
</style>
<g id="_12">
	<path id="Hooves" class="st0" d="M439,437.7c-7,7.2-9.6,19.6-16.8,26.9c-1.6-8-4.6-24.8-6.1-32.7c8.9-1,8.7,0,9.9-2.1
		c0.8-1.4,0.8-2.9,2.1-4.4c0.1-0.1,0.3-0.5,0.6-0.6c2.9-2.5,7.5-0.8,8.2,3C437.5,431.1,438.3,434.4,439,437.7L439,437.7z
		 M196.2,399.9c-1.8-0.6-3.6,0.5-4.1,2.2c-0.3,1-0.3,2.2,0.1,3.3c0.6,1.8,1.6,2.4,2.6,3.6c1.2,1.8-2.6,3.6-5.9,10l29.9,11.7
		L207,401.2C203.1,399.9,199.8,401.2,196.2,399.9L196.2,399.9z M278.7,444.9c-0.9-1-2.2-2.4-4-2.7c-1.8-0.1-3,0.9-4.5,1.5
		c-2,0.8-2.2-4.5-7.8-9.3c-3.5,5.7-13.2,21.8-16.6,27.5c7.9,0.6,23.7-3,31.6-1.5C279.3,455.8,276.7,449.2,278.7,444.9L278.7,444.9z
		 M279.1,381.6c-1.4,2-2.9,4.5-2.2,7.2c0.5,2.1,2,2.9,2.7,4.5c1.2,2.1-0.5,1.2-4.2,7.8c8.2,4.4,34,14,34,14l-17-31.6
		C292.5,383.5,284.2,384.1,279.1,381.6L279.1,381.6z"/>
	<g id="BodyB">
		<path class="st1" d="M289.9,377.7c-23.8-15.6-67.2-31.5-90.6-54.9c2.7-4.5,6.7-10.3,12.7-17.5c3.3-3.9,47.2-63.9,54.8-85.9
			c0.3-0.3,0.5-0.8,0.8-1.1c14.4-21.6,23.7-23.6,2.1-37.9s-44.6,0.6-58.9,22.1c-9.8,14.6-31.5-3.8-24.1,10.9c1.6,7.2,3,15.1,3.6,24
			c1.2,17.1-0.8,31.2-3,41.4c-9.2,21.9-7.2,19.5-16,40.7c-0.1,0.2-0.2,0.4-0.2,0.6c-0.1,0.1-0.1,0.2-0.1,0.4c0,0,0,0,0,0
			c-0.5,1.5-0.9,3.1-0.9,4.8c0,5.8,3.5,10.7,8.4,12.8c29.6,19.1,69,31.5,98.1,51c1.5,2.5,4.3,4.1,7.4,4.1c4.8,0,8.7-3.9,8.7-8.7
			c0-1.1-0.2-2.1-0.6-3.1C291.9,380,291.2,378.6,289.9,377.7L289.9,377.7z"/>
		<path class="st1" d="M500,346.9c3.1-5.7,1.8-13.1-3.6-17.6c-1.1-0.9-2.3-1.6-3.5-2.2c-8.5-17.3-29.3-43-36.4-52.8
			c7.2-5.4-5.2-21-5.4-21.1c-4-1.8-38.2-40.2-38.2-40.2s-34.8,24.3-37.6,26.6c-28,21.9,22.5,19,24,24.1c1.4,4.5,1.5,11.5,7.5,26.2
			c6.8,16.2,37.4,32.6,65.7,51.2c-13.4,23.6-29.5,62.1-41.6,82.3c0.1,0.1,0.2,0.2,0.3,0.3c-3.2,2.1-5.1,6.1-4.4,10.4
			c0.9,5.6,6,9.5,11.4,8.6s9-6.2,8.1-11.8c0-0.1-0.1-0.3-0.1-0.5c16.1-22,36.3-61.2,53.2-82.2C499.6,347.8,499.9,347.4,500,346.9
			L500,346.9z"/>
	</g>
	<path id="BodyF" class="st2" d="M571,114.4c-10.3-11.2-17.7-21.3-21.8-27.4c-2-2.7-5.1-6.4-9.8-9.9c-5.2-3.9-10.3-5.7-13.8-6.8
		h-0.4l-20.2-20.5l3.3,14.5l-16.2-15.4l6.2,22.8c-3.7,1.8-12.2,6.4-18.5,15c-33,10.9-71.6,46.5-108,70.8
		c-136.4,42.4-93.3-34.9-191.1-14.5c-25.8,5.4-49.6,37.2-51.8,54.6c-7.3,34.1,3.9,51,25,61.4c10.6,5.2,12.6,19.7,3.4,27.3
		c-10.4,8.6-24.6,13.1-35.3,19.8c-0.8,0.5-1.3,1.3-1.5,2.1c-0.9,1.1-1.7,2.3-2.3,3.6c-2.6,5.6-1.8,12,1.6,16.8
		c0.2,0.5,0.5,1,0.9,1.5c23.9,25.1,47.8,50.4,71.7,75.6c0.5,1.3,1.4,2.4,2.6,3.2c3.4,2.3,8.2,1.2,10.7-2.4c2.4-3.6,1.6-8.5-1.8-10.8
		c-0.5-0.4-1.1-0.6-1.7-0.8c-17.5-24-35-48-52.4-72c0.1-0.4,0.2-0.8,0.2-1.2c15-5,36.8-14.8,52.2-23.8c10.3-6,18.4-12.7,24.4-18.7
		c67.2,18.7,90.3,43.6,139.8,42.4l-20.5,69.2c-2.3,2.1-4,4.9-4.6,8c-18.6,10.4-41.7,32.8-60.5,43.8c-2.3-0.6-4.8-0.4-6.9,0.9
		c-4.3,2.5-5.6,8.2-3,12.6c2,3.4,5.7,5.1,9.3,4.5c0.7,0.1,1.4,0.1,2.1-0.2c14.7-5.9,49.2-32.1,72.9-44.3c0.3,0,0.6,0,0.9,0
		c8.3,0,14.9-6.3,15.1-14.2c14.6-19.1,31.6-38.1,45.8-57.2c6.3-1.6,32-25.6,34.8-32c8.9-12.9,9.9-41.6,10.4-58.1
		c0.2-0.6,0.4-1.3,0.4-2c-0.1-1.3-0.1-2.6-0.2-3.9c0.1-1.5,0-2.7-0.1-3.8c-1.9-59.4,16-82,32.2-96.1c1.3,0.9,2.6,1.6,3.9,2.1
		c8.2,3.4,15.3,3.3,15.3,3.3c2.4,0,6.3-0.4,10.2-0.9c3.8-0.6,4.7-0.9,7-1.1c4.3-0.1,7.7,0.9,10,1.6c5.5,1.8,16.8,5.7,31.7,11.2
		c0,0,4.2,1.8,12.2,4.9c1.2,0.6,7.8,3.6,13.5,0.6c6.5-3.3,7.3-11.7,7.5-12.8C607.2,144.7,591.3,136.5,571,114.4L571,114.4z
		 M535.6,103.5l-5.7-5.1l5.1-5.7l5.7,5.1L535.6,103.5z M596.7,151l-2.4-2.1l2.1-2.4l2.4,2.1L596.7,151z"/>
	<g id="Horn">
		<path id="ej82dvxeu3j31" class="st0" d="M548.5,77.7l-5.7,4.8l0,0c-2,1.9-0.5,4.9,2.5,7.8c2.8,2.8,6,4.7,8,2.7l0,0l4.8-5.6
			c-2.4-0.2-4.8-1.2-6.6-3.2C549.7,82.4,548.6,80.1,548.5,77.7z"/>
		<path id="ej82dvxeu3j32" class="st2" d="M556.3,71.2l-7.8,6.6c0.2,2.4,1.2,4.8,3,6.6c1.8,1.8,4.2,2.8,6.6,3.2l6.8-7.7
			c-2.1-0.3-4-1.3-5.7-3S556.6,73.3,556.3,71.2z"/>
		<path id="ej82dvxeu3j33" class="st0" d="M592.2,48.4l6.9-8c-0.6-0.5-1-0.8-1.7-1.3c-0.5-0.5-0.9-1-1.3-1.7l-8.1,6.8
			c0.5,0.9,1,1.7,1.8,2.2C590.5,47.4,591.3,48,592.2,48.4L592.2,48.4z"/>
		<path id="ej82dvxeu3j34" class="st2" d="M599.1,40.5l17.4-20l-20.2,17.1c0.3,0.6,0.8,1,1.3,1.7C598,39.7,598.5,40.2,599.1,40.5z"
			/>
		<path id="ej82dvxeu3j35" class="st3" d="M589.8,46.8c-0.8-0.8-1.2-1.5-1.8-2.2l-8.1,6.8c0.5,1,1.2,2.1,2.1,3.2
			c0.9,0.9,2,1.7,3,2.1l6.9-8C591.3,48,590.5,47.4,589.8,46.8L589.8,46.8z"/>
		<path id="ej82dvxeu3j36" class="st2" d="M580,51.1l-8,6.8c0.5,1.3,1.3,2.7,2.4,3.9c1.2,1.2,2.4,2,3.9,2.6l6.9-8
			c-1-0.5-2.1-1.2-3-2.1C581.2,53.4,580.6,52.3,580,51.1L580,51.1z"/>
		<path id="ej82dvxeu3j37" class="st3" d="M564.1,64.6l-7.8,6.6c0.3,2.1,1.3,4.1,2.8,5.7c1.7,1.7,3.6,2.6,5.7,3l6.8-7.8
			c-1.7-0.4-3.3-1.3-4.7-2.7C565.5,67.9,564.6,66.3,564.1,64.6z"/>
		<path id="ej82dvxeu3j38" class="st0" d="M572.1,57.9l-8,6.8c0.5,1.8,1.3,3.4,2.7,4.8c1.3,1.3,3,2.2,4.7,2.7l6.8-7.8
			c-1.3-0.5-2.7-1.3-3.9-2.5C573.4,60.7,572.5,59.4,572.1,57.9z"/>
	</g>
	<g id="Tail">
		<polygon id="ej82dvxeu3j473" class="st2" points="148.9,163.4 113.3,141.2 152.3,125.7 187.8,148 		"/>
		<polygon id="ej82dvxeu3j474" class="st3" points="106.6,154.1 80.3,137.8 109.1,126.3 135.1,142.7 		"/>
		<polygon id="ej82dvxeu3j475" class="st0" points="65.3,147.6 44.5,134.6 67.3,125.6 88,138.6 		"/>
	</g>
	<g id="Mane">
		<polygon id="ej82dvxeu3j477" class="st2" points="353.4,115.7 358.5,112.3 362,117.4 356.9,120.8 		"/>
		<polygon id="ej82dvxeu3j478" class="st3" points="361.7,117.4 369.3,112.2 374.5,119.7 366.9,125 		"/>
		<polygon id="ej82dvxeu3j479" class="st0" points="374.2,120 385.6,112.4 393.4,123.7 382.1,131.5 		"/>
		<polygon id="ej82dvxeu3j480" class="st2" points="392.4,123.4 406,114.2 415.4,127.8 401.8,137.1 		"/>
		<polygon id="ej82dvxeu3j481" class="st2" points="377.4,98.7 382.5,95.3 385.9,100.4 380.9,103.8 		"/>
		<polygon id="ej82dvxeu3j482" class="st3" points="385.5,100.4 393.1,95.2 398.4,102.8 390.8,108 		"/>
		<polygon id="ej82dvxeu3j483" class="st0" points="398,103.2 409.3,95.4 417.2,106.7 406,114.5 		"/>
		<polygon id="ej82dvxeu3j484" class="st2" points="416.2,106.5 429.8,97.2 439.3,111 425.7,120.3 		"/>
		<polygon id="ej82dvxeu3j485" class="st2" points="401.2,82.2 406.2,78.8 409.7,83.9 404.6,87.3 		"/>
		<polygon id="ej82dvxeu3j486" class="st3" points="409.5,83.7 417.1,78.7 422.4,86.2 414.8,91.5 		"/>
		<polygon id="ej82dvxeu3j487" class="st0" points="422,86.5 433.3,78.9 441.1,90.2 429.8,98 		"/>
		<polygon id="ej82dvxeu3j488" class="st2" points="440.1,89.9 453.8,80.7 463.3,94.3 449.5,103.6 		"/>
	</g>
</g>
</svg>
